<svg width="18" height="20" viewBox="0 0 18 20" fill="none" xmlns="http://www.w3.org/2000/svg">
    <path d="M15.7108 17.5C14.8808 18.74 14.0008 19.95 12.6608 19.97C11.3208 20 10.8908 19.18 9.37082 19.18C7.84083 19.18 7.37082 19.95 6.10082 20C4.79082 20.05 3.80082 18.68 2.96082 17.47C1.25082 15 -0.0591757 10.45 1.70082 7.39C2.57082 5.87 4.13082 4.91 5.82082 4.88C7.10082 4.86 8.32082 5.75 9.11082 5.75C9.89082 5.75 11.3708 4.68 12.9208 4.84C13.5708 4.87 15.3908 5.1 16.5608 6.82C16.4708 6.88 14.3908 8.1 14.4108 10.63C14.4408 13.65 17.0608 14.66 17.0908 14.67C17.0608 14.74 16.6708 16.11 15.7108 17.5ZM10.0008 1.5C10.7308 0.67 11.9408 0.04 12.9408 0C13.0708 1.17 12.6008 2.35 11.9008 3.19C11.2108 4.04 10.0708 4.7 8.95082 4.61C8.80082 3.46 9.36082 2.26 10.0008 1.5Z" fill="black"/>
</svg>
