<svg width="17" height="17" viewBox="0 0 17 17" fill="none" xmlns="http://www.w3.org/2000/svg">
    <path d="M5.62555 0.457621C3.93547 1.04392 2.47795 2.15675 1.46707 3.63264C0.45619 5.10853 -0.0547608 6.86969 0.00926668 8.65743C0.0732942 10.4452 0.708925 12.1653 1.82279 13.5651C2.93666 14.9648 4.47006 15.9706 6.19775 16.4344C7.59843 16.7959 9.06593 16.8117 10.4741 16.4807C11.7498 16.1942 12.9291 15.5812 13.8968 14.702C14.9038 13.7589 15.6348 12.5591 16.0111 11.2317C16.4202 9.78823 16.493 8.27019 16.2239 6.79417H8.35839V10.0569H12.9136C12.8225 10.5773 12.6274 11.074 12.34 11.5172C12.0525 11.9605 11.6786 12.3411 11.2406 12.6365C10.6843 13.0044 10.0573 13.252 9.39973 13.3633C8.74023 13.4859 8.06377 13.4859 7.40427 13.3633C6.73585 13.2251 6.10353 12.9492 5.54758 12.5532C4.65445 11.921 3.98383 11.0228 3.63142 9.98689C3.27305 8.93154 3.27305 7.78741 3.63142 6.73206C3.88227 5.99231 4.29697 5.31877 4.84455 4.76172C5.47119 4.11253 6.26453 3.64849 7.13754 3.4205C8.01055 3.19252 8.92949 3.2094 9.79353 3.4693C10.4685 3.6765 11.0857 4.03851 11.596 4.52649C12.1097 4.01552 12.6224 3.50322 13.1343 2.9896C13.3986 2.71341 13.6866 2.45043 13.947 2.16763C13.168 1.44276 12.2537 0.878723 11.2564 0.507837C9.4403 -0.1516 7.45314 -0.169322 5.62555 0.457621Z" fill="white"/>
    <path d="M5.62357 0.458263C7.45102 -0.169106 9.43818 -0.151851 11.2544 0.507158C12.2519 0.880563 13.1658 1.44732 13.9437 2.17488C13.6794 2.45768 13.4005 2.72198 13.131 2.99685C12.6182 3.5087 12.1059 4.0188 11.5941 4.52713C11.0838 4.03916 10.4665 3.67714 9.79156 3.46994C8.9278 3.20913 8.00889 3.19128 7.13565 3.41833C6.26241 3.64538 5.46858 4.10857 4.84125 4.75707C4.29367 5.31413 3.87898 5.98767 3.62812 6.72742L0.888672 4.60642C1.86923 2.66193 3.567 1.17454 5.62357 0.458263Z" fill="#E33629"/>
    <path d="M0.163861 6.71055C0.311103 5.98081 0.555556 5.27412 0.890681 4.60938L3.63013 6.73565C3.27176 7.791 3.27176 8.93514 3.63013 9.99049C2.71742 10.6953 1.80427 11.4036 0.890681 12.1154C0.0517335 10.4455 -0.204131 8.5428 0.163861 6.71055Z" fill="#F8BD00"/>
    <path d="M8.35801 6.79309H16.2235C16.4926 8.26911 16.4198 9.78715 16.0108 11.2307C15.6345 12.5581 14.9035 13.7578 13.8964 14.7009C13.0123 14.0111 12.1243 13.3265 11.2402 12.6367C11.6785 12.3411 12.0526 11.96 12.3401 11.5163C12.6275 11.0726 12.8225 10.5754 12.9132 10.0545H8.35801C8.35669 8.96827 8.35801 7.88068 8.35801 6.79309Z" fill="#587DBD"/>
    <path d="M0.888672 12.1171C1.80226 11.4124 2.71541 10.704 3.62812 9.99219C3.98124 11.0285 4.65281 11.9267 5.54693 12.5585C6.10461 12.9527 6.73829 13.2263 7.40759 13.362C8.06709 13.4846 8.74354 13.4846 9.40304 13.362C10.0606 13.2507 10.6876 13.0031 11.2439 12.6352C12.128 13.325 13.016 14.0095 13.9001 14.6993C12.9326 15.5791 11.7532 16.1925 10.4774 16.4794C9.06924 16.8104 7.60175 16.7946 6.20107 16.4331C5.09326 16.1373 4.0585 15.6159 3.16164 14.9015C2.21236 14.1479 1.43703 13.1981 0.888672 12.1171Z" fill="#319F43"/>
</svg>
