<svg width="160" height="160" viewBox="0 0 160 160" fill="none" xmlns="http://www.w3.org/2000/svg">
    <mask id="mask0_9_535" style="mask-type:luminance" maskUnits="userSpaceOnUse" x="0" y="0" width="160" height="160">
        <path d="M160 0H0V160H160V0Z" fill="white"/>
    </mask>
    <g mask="url(#mask0_9_535)">
        <path d="M146.667 115.373H13.334V115.306H146.667V115.373Z" fill="#EAEAEA"/>
        <path d="M90.7229 117.189H97.512V117.122H90.7229V117.189Z" fill="#EAEAEA"/>
        <path d="M118.697 118.632H134.786V118.565H118.697V118.632Z" fill="#EAEAEA"/>
        <path d="M72.6565 117.222H89.2786V117.155H72.6565V117.222Z" fill="#EAEAEA"/>
        <path d="M58.4004 119.217H61.878V119.15H58.4004V119.217Z" fill="#EAEAEA"/>
        <path d="M65.2559 119.217H81.0895V119.15H65.2559V119.217Z" fill="#EAEAEA"/>
        <path d="M27.3223 118.091H37.5767V118.025H27.3223V118.091Z" fill="#EAEAEA"/>
        <path d="M76.5386 103.413H25.0456C24.2064 103.413 23.5234 102.731 23.5234 101.891V29.5093C23.5234 28.6701 24.2064 27.9874 25.0456 27.9874H76.5386C77.3776 27.9874 78.0605 28.6701 78.0605 29.5093V101.891C78.0605 102.731 77.3776 103.413 76.5386 103.413ZM25.0456 28.0541C24.2429 28.0541 23.5901 28.7069 23.5901 29.5093V101.891C23.5901 102.694 24.2429 103.347 25.0456 103.347H76.5386C77.341 103.347 77.9938 102.694 77.9938 101.891V29.5093C77.9938 28.7069 77.341 28.0541 76.5386 28.0541H25.0456Z" fill="#EAEAEA"/>
        <path d="M134.216 103.413H82.723C81.8841 103.413 81.2012 102.731 81.2012 101.891V29.5093C81.2012 28.6701 81.8841 27.9874 82.723 27.9874H134.216C135.056 27.9874 135.738 28.6701 135.738 29.5093V101.891C135.738 102.731 135.056 103.413 134.216 103.413ZM82.723 28.0541C81.9206 28.0541 81.2678 28.7069 81.2678 29.5093V101.891C81.2678 102.694 81.9206 103.347 82.723 103.347H134.216C135.019 103.347 135.672 102.694 135.672 101.891V29.5093C135.672 28.7069 135.019 28.0541 134.216 28.0541H82.723Z" fill="#EAEAEA"/>
        <path d="M65.5885 92.1778H47.8816L46.8066 79.7778H64.5136L65.5885 92.1778Z" fill="#E5E5E5"/>
        <path d="M66.5062 92.1778H48.7995L47.7246 79.7778H65.4313L66.5062 92.1778Z" fill="#EFEFEF"/>
        <path d="M51.2191 89.5149L50.6287 82.4405H63.01L63.6001 89.5149H51.2191Z" fill="white"/>
        <path d="M69.5698 115.306H67.4922V92.1779H69.5698V115.306Z" fill="#E5E5E5"/>
        <path d="M70.2259 115.306H68.7832V92.1779H70.2259V115.306Z" fill="#EFEFEF"/>
        <path d="M50.1152 94.7304H70.2243V92.1779H50.1152V94.7304Z" fill="#EFEFEF"/>
        <path d="M50.8276 115.306H48.75V94.7303H50.8276V115.306Z" fill="#E5E5E5"/>
        <path d="M51.482 115.306H50.0391V94.7303H51.482V115.306Z" fill="#EFEFEF"/>
        <path d="M36.0385 115.306H33.9609V94.7304H36.0385V115.306Z" fill="#E5E5E5"/>
        <path d="M36.6949 115.306H35.252V94.7303H36.6949V115.306Z" fill="#EFEFEF"/>
        <path d="M56.4214 115.306H54.3438V94.7303H56.4214V115.306Z" fill="#E5E5E5"/>
        <path d="M57.0774 115.306H55.6348V94.7303H57.0774V115.306Z" fill="#EFEFEF"/>
        <path d="M50.1161 94.7304H33.9609V92.1779H50.1161V94.7304Z" fill="#E5E5E5"/>
        <path d="M110.357 69.2984H47.8691V34.5104H110.357V69.2984Z" fill="#E0E0E0"/>
        <path d="M113.79 69.2984H48.1855V34.5104H113.79V69.2984Z" fill="#F4F4F4"/>
        <path d="M112.716 68.2267V35.5822H49.2559V68.2267H112.716Z" fill="white"/>
        <path d="M74.9513 68.2266L86.9324 35.5821H67.1593L55.178 68.2266H74.9513Z" fill="#F4F4F4"/>
        <path d="M93.9846 68.2266L105.966 35.5821H91.0494L79.0684 68.2266H93.9846Z" fill="#F4F4F4"/>
        <path d="M130.161 115.306H124.85V82.0808H130.161V115.306Z" fill="#E5E5E5"/>
        <path d="M128.765 115.306H130.162V112.748H127.301L128.765 115.306Z" fill="#F9F9F9"/>
        <path d="M81.1867 115.306H75.875V82.0808H81.1867V115.306Z" fill="#E5E5E5"/>
        <path d="M130.163 114.616H79.9688V82.0808H130.163V114.616Z" fill="#F9F9F9"/>
        <path d="M129.212 92.5784H80.918V83.3896H129.212V92.5784ZM81.1846 92.3117H128.945V83.6563H81.1846V92.3117Z" fill="#E5E5E5"/>
        <path d="M120.71 87.851H90.3577C88.9481 87.851 87.591 86.7139 86.635 84.7315L86.5427 84.5403H124.525L124.433 84.7315C123.477 86.7139 122.12 87.851 120.71 87.851ZM86.9699 84.8069C87.8723 86.5752 89.099 87.5843 90.3577 87.5843H120.71C121.969 87.5843 123.196 86.5752 124.098 84.8069H86.9699Z" fill="#E5E5E5"/>
        <path d="M81.3656 115.306H79.9688V112.748H82.8298L81.3656 115.306Z" fill="#F9F9F9"/>
        <path d="M129.212 102.943H80.918V93.7538H129.212V102.943ZM81.1846 102.676H128.945V94.0205H81.1846V102.676Z" fill="#E5E5E5"/>
        <path d="M120.71 98.2152H90.3577C88.9481 98.2152 87.591 97.0781 86.635 95.0957L86.5427 94.9045H124.525L124.433 95.0957C123.477 97.0781 122.12 98.2152 120.71 98.2152ZM86.9699 95.1712C87.8723 96.9395 89.099 97.9485 90.3577 97.9485H120.71C121.969 97.9485 123.196 96.9395 124.098 95.1712H86.9699Z" fill="#E5E5E5"/>
        <path d="M129.212 113.307H80.918V104.118H129.212V113.307ZM81.1846 113.041H128.945V104.385H81.1846V113.041Z" fill="#E5E5E5"/>
        <path d="M120.71 108.579H90.3577C88.9481 108.579 87.591 107.443 86.635 105.46L86.5427 105.269H124.525L124.433 105.46C123.477 107.443 122.12 108.579 120.71 108.579ZM86.9699 105.535C87.8723 107.304 89.099 108.313 90.3577 108.313H120.71C121.969 108.313 123.196 107.304 124.098 105.535H86.9699Z" fill="#E5E5E5"/>
        <path d="M45.596 86.4755V87.1203H45.1832L44.8424 92.1779H39.8197L39.4792 87.1203H39.0664V86.4755H45.596Z" fill="#E5E5E5"/>
        <path d="M43.9423 73.9229C43.5295 70.9104 39.4639 70.0496 34.3044 69.9394C29.3948 69.8346 27.8223 68.0973 27.8223 68.0973C27.8223 68.0973 27.8377 75.1317 34.9121 77.6786C41.6297 80.097 44.3559 76.9408 43.9423 73.9229Z" fill="#E5E5E5"/>
        <path d="M41.4335 80.753C41.5197 79.5138 43.4981 77.2367 48.2567 78.2719C51.6978 79.0204 52.977 77.2367 52.977 77.2367C52.977 77.2367 52.6583 82.2711 47.4834 83.7847C42.5695 85.222 41.2821 82.9319 41.4335 80.753Z" fill="#E5E5E5"/>
        <path d="M42.5202 88.3744C42.5722 88.3744 42.6242 88.3522 42.6604 88.3093C43.0055 87.9016 42.7234 86.9253 42.3327 85.5738C41.8314 83.8397 41.2076 81.681 41.7359 80.1138C42.034 79.229 42.4028 78.4488 42.7596 77.6944C43.5066 76.1146 44.1516 74.7506 43.6138 73.3258C43.578 73.2309 43.4722 73.1832 43.3772 73.2189C43.2826 73.2546 43.2346 73.3608 43.2703 73.4554C43.7532 74.7344 43.1684 75.9714 42.4279 77.5376C42.0834 78.2658 41.6932 79.0914 41.3882 79.9965C40.8231 81.6728 41.4644 83.8922 41.9799 85.6757C42.2839 86.7274 42.598 87.8146 42.3802 88.0722C42.3148 88.1496 42.3244 88.2656 42.4018 88.3309C42.4362 88.36 42.4783 88.3744 42.5202 88.3744Z" fill="#E5E5E5"/>
        <path d="M120.492 59.8184C118.681 74.276 106.013 88.7115 92.0833 98.0088C56.0724 122.226 21.2799 81.1317 30.0591 66.372C36.6492 51.4002 57.2017 55.5131 65.9452 49.6274C115.089 16.3146 122.197 47.7186 120.492 59.8184Z" fill="#A01F5D"/>
        <g opacity="0.9">
            <path d="M120.492 59.8184C118.681 74.276 106.013 88.7115 92.0833 98.0088C56.0724 122.226 21.2799 81.1317 30.0591 66.372C36.6492 51.4002 57.2017 55.5131 65.9452 49.6274C115.089 16.3146 122.197 47.7186 120.492 59.8184Z" fill="white"/>
        </g>
        <path d="M131.704 124.33C131.704 125.998 108.556 127.35 80.0006 127.35C51.4454 127.35 28.2969 125.998 28.2969 124.33C28.2969 122.663 51.4454 121.311 80.0006 121.311C108.556 121.311 131.704 122.663 131.704 124.33Z" fill="#F4F4F4"/>
        <path d="M79.99 109.722H42.1233L40.0508 48.8243H77.9174L79.99 109.722Z" fill="#A01F5D"/>
        <path d="M81.8806 107.831H44.0139L41.9414 46.9326H79.8081L81.8806 107.831Z" fill="#A01F5D"/>
        <g opacity="0.3">
            <path d="M81.8806 107.831H44.0139L41.9414 46.9326H79.8081L81.8806 107.831Z" fill="white"/>
        </g>
        <path d="M72.1195 64.401C72.3198 70.2837 67.7134 75.0525 61.8307 75.0525C55.9481 75.0525 51.0169 70.2837 50.8166 64.401C50.6163 58.5184 55.223 53.7496 61.1057 53.7496C66.9883 53.7496 71.9193 58.5184 72.1195 64.401Z" fill="#A01F5D"/>
        <path d="M70.2587 64.4C70.3104 65.9181 69.9739 67.3435 69.339 68.5875C67.9494 71.3275 65.1088 73.1909 61.767 73.1909C58.4251 73.1909 55.4579 71.3275 53.8816 68.5875C53.1622 67.3435 52.7286 65.9181 52.6768 64.4C52.5115 59.544 56.3128 55.6091 61.1686 55.6091C66.0243 55.6091 70.0934 59.544 70.2587 64.4Z" fill="white"/>
        <g opacity="0.6">
            <path d="M69.3396 68.5874C67.95 71.3274 65.1098 73.1909 61.7679 73.1909C58.426 73.1909 55.4588 71.3274 53.8826 68.5874C56.0455 67.109 58.6719 66.2458 61.5314 66.2458C64.3908 66.2458 67.0762 67.109 69.3396 68.5874Z" fill="#A01F5D"/>
        </g>
        <g opacity="0.6">
            <path d="M65.2808 61.3925C65.3544 63.5551 63.6611 65.3082 61.4984 65.3082C59.3357 65.3082 57.5229 63.5551 57.4493 61.3925C57.3757 59.2298 59.0691 57.4767 61.2317 57.4767C63.3944 57.4767 65.2072 59.2298 65.2808 61.3925Z" fill="#A01F5D"/>
        </g>
        <path d="M74.2745 85.7774H50.1185L49.9551 80.9774H74.1111L74.2745 85.7774Z" fill="white"/>
        <path d="M74.5656 94.3569H50.4096L50.2461 89.5569H74.4021L74.5656 94.3569Z" fill="white"/>
        <path d="M70.5779 101.078H54.8544L54.748 97.9536H70.4715L70.5779 101.078Z" fill="#A01F5D"/>
        <g opacity="0.01">
            <path d="M52.534 90.6409C53.1963 90.6409 53.734 91.1786 53.734 91.8409C53.734 92.5031 53.1963 93.0409 52.534 93.0409C51.8717 93.0409 51.334 92.5031 51.334 91.8409C51.334 91.1786 51.8717 90.6409 52.534 90.6409Z" fill="#A01F5D"/>
        </g>
        <path d="M52.9543 84.632C53.557 84.632 54.0316 84.2854 54.0316 83.576V82.1067H53.5436V83.52C53.5436 83.9787 53.3143 84.1787 52.957 84.1787C52.5996 84.1787 52.373 83.9787 52.373 83.52V82.1067H51.877V83.576C51.877 84.2854 52.3516 84.632 52.9543 84.632Z" fill="#FF429E"/>
        <path d="M55.4072 84.1947C55.0872 84.1947 54.9005 84.0853 54.8738 83.8907H54.3965C54.4338 84.352 54.8072 84.6293 55.4018 84.6293C55.9805 84.6293 56.3698 84.3707 56.3698 83.8613C56.3698 83.4933 56.1645 83.264 55.6605 83.1653L55.3805 83.1067C55.0765 83.0507 54.9352 82.9733 54.9352 82.792C54.9352 82.6 55.0978 82.5013 55.3645 82.5013C55.6178 82.5013 55.7885 82.5973 55.8205 82.768H56.2952C56.2525 82.3493 55.9298 82.0693 55.3592 82.0693C54.7725 82.0693 54.4418 82.352 54.4418 82.792C54.4418 83.1707 54.6765 83.416 55.1858 83.5147L55.4632 83.5707C55.7645 83.6293 55.8738 83.728 55.8738 83.8907C55.8738 84.0827 55.6925 84.1947 55.4072 84.1947Z" fill="#FF429E"/>
        <path d="M58.5731 84.5894V84.1494H57.2211V83.56H58.4665V83.1227H57.2211V82.5467H58.5545V82.1067H56.7305V84.5894H58.5731Z" fill="#FF429E"/>
        <path d="M59.4926 83.32V82.544H60.0713C60.394 82.544 60.5646 82.6854 60.5646 82.9307C60.5646 83.1814 60.394 83.32 60.0713 83.32H59.4926ZM59.4926 83.7574H59.8846L60.5246 84.5894H61.0793L60.4073 83.72C60.834 83.6214 61.0633 83.32 61.0633 82.9307C61.0633 82.448 60.738 82.1067 60.1166 82.1067H59.002V84.5894H59.4926V83.7574Z" fill="#FF429E"/>
        <path d="M61.4766 82.104V84.5893H61.9619V82.8853L63.2339 84.592H63.6952V82.1067H63.2126V83.8133L61.9379 82.104H61.4766Z" fill="#FF429E"/>
        <g opacity="0.3">
            <path d="M103.601 46.0847C103.601 46.5418 103.019 46.9122 102.302 46.9122C101.585 46.9122 101.004 46.5418 101.004 46.0847C101.004 45.6276 101.585 45.257 102.302 45.257C103.019 45.257 103.601 45.6276 103.601 46.0847Z" fill="#A01F5D"/>
        </g>
        <g opacity="0.6">
            <path d="M110.496 44.0687C110.496 45.1821 109.08 46.0847 107.333 46.0847C105.586 46.0847 104.17 45.1821 104.17 44.0687C104.17 42.9554 105.586 42.0527 107.333 42.0527C109.08 42.0527 110.496 42.9554 110.496 44.0687Z" fill="#A01F5D"/>
        </g>
        <path d="M124.791 36.3554C124.791 39.7428 120.482 42.4887 115.168 42.4887C109.853 42.4887 105.545 39.7428 105.545 36.3554C105.545 32.9682 109.853 30.222 115.168 30.222C120.482 30.222 124.791 32.9682 124.791 36.3554Z" fill="#A01F5D"/>
        <path d="M111.514 39.1895C110.98 39.1533 110.471 38.9583 110.039 38.6192C109.461 38.1646 109.1 37.5104 109.024 36.7772C108.879 35.3756 109.893 34.0578 111.284 33.8395C112.429 33.6604 113.542 34.219 114.082 35.2366L120.332 34.3831C120.838 34.3141 121.326 34.6462 121.417 35.1242C121.465 35.3784 121.409 35.6333 121.258 35.8426C121.107 36.052 120.884 36.1865 120.628 36.2213L120.464 36.2438C120.415 36.2504 120.374 36.2767 120.348 36.3182C120.321 36.3592 120.315 36.4093 120.329 36.4557L120.418 36.7456C120.479 36.9419 120.396 37.1525 120.22 37.2461C120.083 37.3191 119.983 37.4535 119.955 37.6061C119.921 37.7929 119.785 37.9297 119.61 37.9536L119.481 37.9711C119.307 37.9945 119.139 37.9003 119.055 37.7294C118.957 37.5297 118.743 37.4158 118.522 37.4459C118.3 37.4763 118.123 37.6436 118.081 37.8624C118.046 38.0495 117.91 38.1857 117.736 38.2094L117.61 38.2265C117.437 38.2503 117.268 38.1554 117.184 37.9848C117.115 37.8454 116.983 37.7424 116.831 37.709C116.636 37.6664 116.499 37.486 116.505 37.2801L116.513 36.9767C116.515 36.9277 116.495 36.8822 116.459 36.8496C116.422 36.8166 116.377 36.8023 116.326 36.8087L114.334 37.0808C114.092 38.1824 113.193 39.0165 112.067 39.1702C111.881 39.1955 111.696 39.2019 111.514 39.1895ZM111.325 34.1029C110.072 34.2995 109.158 35.487 109.289 36.7497C109.358 37.4105 109.682 38 110.204 38.4096C110.725 38.8192 111.374 38.9959 112.032 38.9061C113.074 38.7636 113.902 37.9725 114.091 36.9376L114.109 36.8426L116.29 36.5446C116.416 36.5273 116.542 36.566 116.637 36.651C116.731 36.7358 116.783 36.8572 116.78 36.9842L116.772 37.2875C116.769 37.3643 116.819 37.4335 116.888 37.4485C117.122 37.5 117.317 37.6523 117.423 37.8669C117.449 37.9194 117.502 37.9721 117.574 37.9624L117.7 37.9453C117.772 37.9354 117.809 37.8703 117.82 37.8128C117.882 37.4813 118.15 37.2277 118.486 37.1818C118.821 37.1362 119.146 37.309 119.295 37.6115C119.321 37.664 119.373 37.717 119.445 37.7067L119.574 37.6892C119.645 37.6794 119.682 37.6148 119.693 37.5575C119.737 37.3221 119.883 37.123 120.094 37.0107C120.157 36.9777 120.186 36.8977 120.163 36.8245L120.074 36.5343C120.036 36.4128 120.054 36.2817 120.123 36.1746C120.191 36.0678 120.302 35.9965 120.428 35.9794L120.592 35.9569C120.775 35.9321 120.934 35.8363 121.042 35.687C121.149 35.5377 121.189 35.3552 121.155 35.1737C121.09 34.8331 120.736 34.5966 120.368 34.6475L113.928 35.5268L113.886 35.4398C113.417 34.4737 112.389 33.9359 111.325 34.1029ZM111.584 38.2061C111.255 38.1838 110.939 38.0661 110.67 37.8618C110.307 37.5856 110.073 37.1851 110.011 36.7333C109.949 36.2806 110.067 35.831 110.343 35.468C110.619 35.1054 111.02 34.8717 111.472 34.81C111.925 34.748 112.374 34.8659 112.737 35.1415C113.1 35.4171 113.333 35.8181 113.395 36.2711C113.457 36.723 113.339 37.172 113.064 37.535C112.788 37.8985 112.387 38.1326 111.934 38.1944C111.817 38.2105 111.7 38.214 111.584 38.2061ZM111.805 35.0638C111.707 35.0571 111.608 35.0608 111.508 35.0743C111.126 35.1265 110.788 35.3237 110.555 35.6297C110.322 35.936 110.223 36.3146 110.275 36.6969C110.327 37.0781 110.524 37.4165 110.831 37.6496C111.138 37.8824 111.517 37.9822 111.898 37.93C112.28 37.8779 112.619 37.6801 112.851 37.3736C113.084 37.0673 113.183 36.6886 113.131 36.3071C113.079 35.9248 112.882 35.5862 112.576 35.3537C112.349 35.182 112.083 35.0827 111.805 35.0638Z" fill="white"/>
        <path d="M94.109 50.8856C94.0689 51.0314 93.9588 51.1284 93.8636 51.1022C93.7684 51.0759 93.7236 50.9365 93.7638 50.7906C93.8039 50.6448 93.9137 50.5478 94.009 50.574C94.1042 50.6003 94.1492 50.7397 94.109 50.8856Z" fill="#36252D"/>
        <path d="M93.9737 51.1323C93.9737 51.1323 93.4101 51.8824 92.9332 52.1879C93.1249 52.4998 93.5941 52.5105 93.5941 52.5105L93.9737 51.1323Z" fill="#A01F5C"/>
        <path d="M94.8669 50.2228C94.8884 50.2243 94.9105 50.218 94.9286 50.2035C94.9668 50.1727 94.973 50.1167 94.9422 50.0785C94.634 49.6956 94.2258 49.7319 94.208 49.7336C94.1593 49.7386 94.1237 49.7821 94.1287 49.8308C94.1336 49.8795 94.1774 49.9149 94.2253 49.9104C94.2388 49.9092 94.558 49.8845 94.8039 50.1899C94.8202 50.21 94.8429 50.2212 94.8669 50.2228Z" fill="#36252D"/>
        <path d="M98.0345 53.8581C97.6726 55.2088 97.3813 57.0944 98.2767 58.0734C98.2767 58.0734 97.8075 59.4366 95.2639 59.263C92.4666 59.072 94.0014 57.9523 94.0014 57.9523C95.1887 57.6709 95.269 56.3456 95.0758 55.2638L98.0345 53.8581Z" fill="#FF7ABA"/>
        <path d="M99.0597 51.9161C98.4564 53.6773 98.1929 54.7386 97.0349 55.409C95.2931 56.4172 93.308 54.988 93.3729 53.0821C93.4315 51.3667 94.4079 48.7752 96.3577 48.545C98.2787 48.3183 99.6629 50.155 99.0597 51.9161Z" fill="#FF7ABA"/>
        <path d="M94.8544 51.6982C94.782 51.4517 94.494 49.5695 94.9161 49.1148C95.3382 48.6601 99.7437 49.3087 100.355 49.998C101.368 51.1414 100.549 52.0443 99.2755 53.1943C98.3176 54.0591 98.2123 55.1002 97.7506 55.2226C96.9416 55.4371 95.7324 55.1011 95.5442 54.2402C95.3557 53.3792 94.8544 51.6982 94.8544 51.6982Z" fill="#36252D"/>
        <path d="M99.9634 47.8527C98.4432 47.0794 95.4576 47.6162 93.8988 47.1259C93.7861 47.9428 94.1916 49.2927 95.7523 49.7548C95.7523 49.7548 97.9723 50.3471 99.7179 50.3952C101.463 50.4433 101.254 48.5096 99.9634 47.8527Z" fill="#36252D"/>
        <path d="M100.06 50.0347C100.06 50.0347 101.021 50.2099 101.738 49.8301C101.983 50.5576 100.36 50.6419 100.06 50.0347Z" fill="#36252D"/>
        <path d="M95.7024 51.8302C95.6402 52.3138 95.3834 52.7552 95.0919 53.0354C94.6534 53.4569 94.2468 53.1482 94.2118 52.5958C94.1803 52.0986 94.3706 51.2803 94.8864 51.0664C95.3944 50.8558 95.7735 51.2772 95.7024 51.8302Z" fill="#FF7ABA"/>
        <path d="M102.377 59.8082C102.733 60.3776 103.027 60.924 103.332 61.4912C103.636 62.0528 103.91 62.6304 104.18 63.2128C104.71 64.3816 105.185 65.5872 105.54 66.8744C105.587 67.0322 105.623 67.1997 105.663 67.3637L105.721 67.6106L105.751 67.7338L105.785 67.937C105.861 68.4786 105.794 68.9208 105.702 69.3106C105.511 70.0877 105.202 70.7077 104.872 71.2992C104.197 72.4701 103.41 73.4674 102.503 74.412L101.38 73.5618C101.933 72.5112 102.48 71.4104 102.883 70.352C103.078 69.8256 103.242 69.2898 103.29 68.8501C103.313 68.6338 103.298 68.4482 103.268 68.3789L103.162 68.053C103.118 67.9192 103.08 67.7861 103.027 67.6512C102.643 66.5752 102.154 65.4944 101.622 64.4288C101.097 63.3672 100.516 62.2864 99.9436 61.2776L102.377 59.8082Z" fill="#FF7ABA"/>
        <path d="M101.664 73.1799L100.439 73.8301L101.847 75.4781C101.847 75.4781 102.726 74.8837 102.765 73.9759L101.664 73.1799Z" fill="#FF7ABA"/>
        <path d="M98.793 74.8461L100.301 76.0426L101.848 75.4781L100.44 73.8301L98.793 74.8461Z" fill="#FF7ABA"/>
        <path d="M93.041 56.5701L93.0525 54.8224L95.3671 55.1021C95.3671 55.1021 95.3274 56.6051 94.0349 57.0469L93.041 56.5701Z" fill="#FF7ABA"/>
        <path d="M93.7066 53.5637L95.3365 54.032L95.3674 55.1021L93.0527 54.8224L93.7066 53.5637Z" fill="#FF7ABA"/>
        <g opacity="0.2">
            <path d="M95.3373 54.032L93.708 53.5626L93.3906 54.1706C93.4306 55.2026 94.06 56.0506 94.8946 56.432C95.348 55.8373 95.3666 55.1013 95.3666 55.1013L95.3373 54.032Z" fill="black"/>
        </g>
        <path d="M98.8131 58.8887C99.0627 58.5351 99.0526 57.4181 98.7862 57.221C98.3558 56.9029 96.515 56.8295 94.0353 57.3999C94.3022 58.4821 93.7305 59.0493 93.7305 59.0493L98.8131 58.8887Z" fill="#A01F5D"/>
        <path d="M107.148 122.196C106.959 122.237 106.771 122.248 106.681 122.171C106.643 122.138 106.604 122.076 106.638 121.964C106.655 121.906 106.694 121.862 106.752 121.834C107.006 121.713 107.587 121.95 107.612 121.96C107.628 121.967 107.639 121.982 107.64 122C107.64 122.018 107.63 122.034 107.615 122.041C107.526 122.084 107.337 122.156 107.148 122.196ZM106.843 121.897C106.823 121.901 106.806 121.907 106.79 121.914C106.755 121.931 106.733 121.956 106.723 121.99C106.699 122.07 106.729 122.095 106.739 122.103C106.839 122.189 107.214 122.11 107.478 122.004C107.299 121.941 107.009 121.861 106.843 121.897Z" fill="#A01F5D"/>
        <path d="M107.603 122.045C107.596 122.046 107.589 122.046 107.581 122.044C107.369 121.982 106.916 121.66 106.91 121.447C106.909 121.408 106.923 121.339 107.024 121.303C107.089 121.28 107.155 121.286 107.221 121.319C107.471 121.447 107.63 121.966 107.636 121.988C107.641 122.004 107.637 122.021 107.625 122.033C107.619 122.039 107.611 122.043 107.603 122.045ZM107.072 121.382C107.066 121.383 107.06 121.385 107.053 121.387C106.998 121.406 106.999 121.433 106.999 121.445C107.002 121.571 107.301 121.823 107.521 121.926C107.466 121.776 107.341 121.48 107.18 121.398C107.144 121.379 107.108 121.374 107.072 121.382Z" fill="#A01F5D"/>
        <path d="M93.2983 122.511C93.0575 122.511 92.825 122.478 92.7471 122.37C92.7199 122.332 92.6983 122.267 92.7509 122.176C92.7802 122.124 92.8274 122.089 92.8914 122.072C93.2037 121.987 93.8594 122.36 93.8871 122.376C93.9031 122.386 93.9117 122.404 93.9087 122.422C93.9058 122.44 93.8917 122.455 93.8735 122.459C93.7538 122.482 93.5226 122.511 93.2983 122.511ZM93.0007 122.147C92.9695 122.147 92.9405 122.151 92.9149 122.158C92.8738 122.169 92.8455 122.189 92.8279 122.22C92.7965 122.275 92.8077 122.302 92.8191 122.318C92.9063 122.439 93.3805 122.442 93.7293 122.393C93.5554 122.303 93.2199 122.147 93.0007 122.147Z" fill="#A01F5D"/>
        <path d="M93.8656 122.459C93.8595 122.459 93.8533 122.458 93.8475 122.455C93.6211 122.354 93.1728 121.948 93.2069 121.736C93.2149 121.686 93.2501 121.624 93.3723 121.612C93.4635 121.603 93.5459 121.628 93.6187 121.688C93.8573 121.884 93.9077 122.39 93.9099 122.411C93.9115 122.427 93.9045 122.442 93.8917 122.451C93.884 122.457 93.8747 122.459 93.8656 122.459ZM93.408 121.699C93.3992 121.699 93.3904 121.7 93.3813 121.701C93.3013 121.709 93.2963 121.74 93.2947 121.75C93.2741 121.878 93.5789 122.196 93.8099 122.335C93.7859 122.188 93.7189 121.885 93.5621 121.757C93.5149 121.718 93.4643 121.699 93.408 121.699Z" fill="#A01F5D"/>
        <path d="M95.9279 122.415H94.0521L93.8655 118.071H95.7409L95.9279 122.415Z" fill="#FF7ABA"/>
        <path d="M109.695 121.547L107.862 121.943L106.021 117.898L107.855 117.501L109.695 121.547Z" fill="#FF7ABA"/>
        <path d="M107.685 121.759L109.744 121.314C109.819 121.297 109.895 121.335 109.927 121.405L110.642 122.956C110.716 123.117 110.618 123.306 110.444 123.34C109.723 123.483 109.364 123.517 108.458 123.713C107.901 123.834 106.643 124.14 105.874 124.307C105.121 124.47 104.839 123.734 105.139 123.597C106.485 122.982 107.047 122.441 107.411 121.936C107.477 121.846 107.575 121.783 107.685 121.759Z" fill="#36252D"/>
        <path d="M94.0651 122.198H96.1136C96.1904 122.198 96.2565 122.251 96.2731 122.326L96.6437 123.993C96.6821 124.166 96.5509 124.33 96.3739 124.327C95.6349 124.314 94.5675 124.271 93.6387 124.271C92.5528 124.271 91.6147 124.33 90.3413 124.33C89.5715 124.33 89.3576 123.551 89.68 123.481C91.1475 123.16 92.3453 123.126 93.6133 122.344C93.7512 122.259 93.9032 122.198 94.0651 122.198Z" fill="#36252D"/>
        <path d="M101.645 58.3951C103.403 58.798 104.852 63.286 104.852 63.286L101.322 65.9767C101.322 65.9767 100.027 64.7551 99.4498 62.5103C98.8455 60.1583 99.8474 57.9831 101.645 58.3951Z" fill="#A01F5D"/>
        <g opacity="0.4">
            <path d="M101.645 58.3951C103.403 58.798 104.852 63.286 104.852 63.286L101.322 65.9767C101.322 65.9767 100.027 64.7551 99.4498 62.5103C98.8455 60.1583 99.8474 57.9831 101.645 58.3951Z" fill="#A01F5D"/>
        </g>
        <path d="M92.4019 63.7512C91.9633 64.2245 91.5257 64.6456 91.0726 65.0789C90.8478 65.2941 90.6179 65.5058 90.383 65.7128L90.0289 66.0229L89.9395 66.1C89.8963 66.137 89.8438 66.181 89.7875 66.2242C89.6702 66.3109 89.5417 66.412 89.2723 66.5282C89.1297 66.5832 88.9462 66.656 88.6238 66.6624C88.4705 66.6648 88.2625 66.6381 88.0638 66.5629C87.8609 66.4877 87.6646 66.3576 87.5302 66.2237C87.2513 65.9434 87.167 65.6978 87.1121 65.5333C87.0611 65.3637 87.0465 65.2426 87.0361 65.1368C87.0193 64.9298 87.0299 64.7896 87.0414 64.66C87.0539 64.532 87.0715 64.4213 87.091 64.3168C87.1694 63.9056 87.2801 63.5738 87.4006 63.2416C87.5225 62.9125 87.6577 62.597 87.815 62.2778C87.9843 61.9381 88.1478 61.692 88.3107 61.4077C88.9697 60.3064 89.7427 59.3008 90.5643 58.3525C91.4038 57.4109 92.2849 56.5498 93.2982 55.761L94.2798 56.7712C93.5902 57.6933 92.9123 58.6821 92.2857 59.657C91.6598 60.6392 91.0793 61.6389 90.5795 62.6557C90.4643 62.9069 90.3225 63.1821 90.2425 63.3922C90.1489 63.6218 90.063 63.8685 89.9923 64.1114C89.9225 64.3514 89.8662 64.6016 89.8409 64.785C89.835 64.8293 89.8321 64.868 89.8321 64.8904C89.8313 64.9109 89.8369 64.9224 89.8342 64.8658C89.8315 64.8349 89.8286 64.7888 89.7998 64.6912C89.7673 64.5984 89.7166 64.4224 89.4921 64.1952C89.3838 64.0888 89.2211 63.9773 89.0529 63.917C88.8899 63.8533 88.7193 63.8346 88.6038 63.8352C88.3571 63.8408 88.2467 63.8912 88.1737 63.9173C88.043 63.9738 88.0403 63.989 88.0417 63.9832L88.1441 63.8898L88.4643 63.5962L89.1017 62.9992C89.5235 62.6016 89.9483 62.1776 90.3491 61.7842L92.4019 63.7512Z" fill="#FF7ABA"/>
        <g opacity="0.2">
            <path d="M100.139 61.6954C101.094 62.6402 101.405 64.361 101.479 65.8573L101.323 65.9773C101.323 65.9773 100.026 64.7544 99.4494 62.5101C99.4137 62.3698 99.383 62.229 99.3574 62.0912L100.139 61.6954Z" fill="black"/>
        </g>
        <path d="M90.5368 60.2759C90.1534 62.3023 89.9136 66.4634 91.0267 74.7039H101.059C101.128 73.1639 100.161 65.6514 101.646 58.3951C101.646 58.3951 99.9262 58.0501 98.2875 57.9711C97.0056 57.9093 95.1496 57.8685 94.0227 57.9714C93.5523 58.0143 93.0907 58.0821 92.6792 58.1549C91.5944 58.3469 90.7416 59.1935 90.5368 60.2759Z" fill="#A01F5D"/>
        <g opacity="0.4">
            <path d="M90.5368 60.2759C90.1534 62.3023 89.9136 66.4634 91.0267 74.7039H101.059C101.128 73.1639 100.161 65.6514 101.646 58.3951C101.646 58.3951 99.9262 58.0501 98.2875 57.9711C97.0056 57.9093 95.1496 57.8685 94.0227 57.9714C93.5523 58.0143 93.0907 58.0821 92.6792 58.1549C91.5944 58.3469 90.7416 59.1935 90.5368 60.2759Z" fill="#A01F5D"/>
        </g>
        <g opacity="0.2">
            <path d="M92.0712 63.2709L90.2584 62.8368C90.2021 63.9347 90.1973 65.2955 90.2789 66.9781C91.1139 66.0283 92.1784 64.5475 92.0712 63.2709Z" fill="black"/>
        </g>
        <g opacity="0.2">
            <path d="M93.8652 118.073L93.9612 120.311H95.8375L95.7418 118.073H93.8652Z" fill="black"/>
        </g>
        <g opacity="0.2">
            <path d="M107.854 117.502L106.02 117.899L106.969 119.984L108.803 119.587L107.854 117.502Z" fill="black"/>
        </g>
        <path d="M94.5859 74.704C94.5859 74.704 96.7145 89.0381 97.883 94.4082C99.1627 100.289 106.025 119.745 106.025 119.745L109.382 119.018C109.382 119.018 104.584 103.163 103.51 94.9416C102.685 88.6264 101.059 74.704 101.059 74.704H94.5859Z" fill="black"/>
        <path d="M105.221 118.624C105.207 118.628 105.847 119.839 105.847 119.839L109.624 119.021L109.306 117.885L105.221 118.624Z" fill="#36252D"/>
        <g opacity="0.3">
            <path d="M95.9308 79.8112C98.3922 80.2938 98.1319 89.4728 97.8356 94.1936C97.1258 90.8565 96.0868 84.4349 95.377 79.8776C95.5404 79.796 95.7239 79.7704 95.9308 79.8112Z" fill="black"/>
        </g>
        <path d="M91.0274 74.704C91.0274 74.704 90.769 88.728 90.973 94.448C91.1852 100.398 93.2634 119.878 93.2634 119.878H96.4407C96.4407 119.878 96.5575 100.745 96.6988 94.9018C96.853 88.532 97.622 74.704 97.622 74.704H91.0274Z" fill="black"/>
        <path d="M92.6512 118.612C92.6365 118.612 92.8304 119.931 92.8304 119.931H96.6957L96.8 118.754L92.6512 118.612Z" fill="#36252D"/>
        <path d="M94.4689 60.8911C95.3683 63.3148 90.0843 66.1698 90.0843 66.1698L87.7969 63.229C87.7969 63.229 89.3227 60.1914 91.1955 58.8223C93.5091 57.1308 93.7843 59.046 94.4689 60.8911Z" fill="#A01F5D"/>
        <g opacity="0.4">
            <path d="M94.4689 60.8911C95.3683 63.3148 90.0843 66.1698 90.0843 66.1698L87.7969 63.229C87.7969 63.229 89.3227 60.1914 91.1955 58.8223C93.5091 57.1308 93.7843 59.046 94.4689 60.8911Z" fill="#A01F5D"/>
        </g>
    </g>
</svg>
