<svg width="160" height="160" viewBox="0 0 160 160" fill="none" xmlns="http://www.w3.org/2000/svg">
    <rect width="160" height="160" rx="80" fill="white"/>
    <rect x="16" y="16" width="128" height="128" rx="64" fill="#FFF0F8"/>
    <mask id="mask0_9_1177" style="mask-type:luminance" maskUnits="userSpaceOnUse" x="0" y="0" width="160" height="160">
        <rect width="160" height="160" rx="80" fill="white"/>
        <rect x="16" y="16" width="128" height="128" rx="64" fill="white"/>
        <mask id="mask1_9_1177" style="mask-type:luminance" maskUnits="userSpaceOnUse" x="0" y="0" width="160" height="160">
            <rect width="160" height="160" rx="80" fill="white"/>
            <rect x="16" y="16" width="128" height="128" rx="64" fill="white"/>
            <mask id="mask2_9_1177" style="mask-type:luminance" maskUnits="userSpaceOnUse" x="0" y="0" width="160" height="160">
                <rect width="160" height="160" rx="80" fill="white"/>
                <rect x="16" y="16" width="128" height="128" rx="64" fill="white"/>
                <mask id="mask3_9_1177" style="mask-type:luminance" maskUnits="userSpaceOnUse" x="0" y="0" width="160" height="160">
                    <path d="M160 0H0V160H160V0Z" fill="white"/>
                </mask>
                <g mask="url(#mask3_9_1177)">
                    <path d="M109.199 52.5618L80.9577 44.0891C80.5621 43.9703 80.1408 43.9703 79.7453 44.0891L51.5027 52.5618C50.6111 52.8294 50 53.6507 50 54.582V85.6483C50 89.6893 51.6358 93.8253 54.8619 97.9427C57.3258 101.087 60.7346 104.244 64.9935 107.327C72.1478 112.506 79.1932 115.683 79.4896 115.816C79.7636 115.939 80.0576 116 80.3513 116C80.6453 116 80.9394 115.939 81.2133 115.816C81.5094 115.683 88.5544 112.506 95.7094 107.327C99.968 104.244 103.377 101.087 105.841 97.9427C109.067 93.8257 110.703 89.6893 110.703 85.6483V54.582C110.703 53.6507 110.092 52.8294 109.199 52.5618Z" fill="white"/>
                    <path d="M88.774 73.6324H70.6381C68.1872 73.6324 66.1816 75.638 66.1816 78.0886V89.9102C66.1816 92.3611 68.1872 94.3666 70.6381 94.3666H88.774C91.2249 94.3666 93.2305 92.3611 93.2305 89.9102V78.0886C93.2305 75.638 91.2249 73.6324 88.774 73.6324ZM79.7061 87.6887C77.9305 87.6887 76.4904 86.2486 76.4904 84.4728C76.4904 82.6966 77.9305 81.2571 79.7061 81.2571C81.4826 81.2571 82.9217 82.6966 82.9217 84.4728C82.9217 86.2486 81.4826 87.6887 79.7061 87.6887Z" fill="white"/>
                    <path d="M72.3541 74.9184C71.6453 74.7547 71.1068 74.1302 71.0836 73.3688L70.9564 69.2366C70.8105 64.4694 74.5704 60.4724 79.3376 60.3261C84.1047 60.1802 88.1022 63.9396 88.2481 68.7067L88.3661 72.5711C88.3941 73.4776 87.6817 74.2348 86.7754 74.2625C85.8699 74.2904 85.1123 73.5782 85.0846 72.6719L84.966 68.8073C84.8752 65.8498 82.3958 63.5172 79.4383 63.6077C76.4808 63.6985 74.1481 66.1785 74.2385 69.1359L74.3654 73.2684C74.3934 74.1745 73.6811 74.9318 72.7747 74.9595C72.6301 74.964 72.4889 74.9495 72.3541 74.9184Z" fill="white"/>
                </g>
            </mask>
            <g mask="url(#mask2_9_1177)">
                <path d="M109.199 52.5618L80.9577 44.0891C80.5621 43.9703 80.1408 43.9703 79.7453 44.0891L51.5027 52.5618C50.6111 52.8294 50 53.6507 50 54.582V85.6483C50 89.6893 51.6358 93.8253 54.8619 97.9427C57.3258 101.087 60.7346 104.244 64.9935 107.327C72.1478 112.506 79.1932 115.683 79.4896 115.816C79.7636 115.939 80.0576 116 80.3513 116C80.6453 116 80.9394 115.939 81.2133 115.816C81.5094 115.683 88.5544 112.506 95.7094 107.327C99.968 104.244 103.377 101.087 105.841 97.9427C109.067 93.8257 110.703 89.6893 110.703 85.6483V54.582C110.703 53.6507 110.092 52.8294 109.199 52.5618Z" fill="white"/>
                <path d="M88.774 73.6324H70.6381C68.1872 73.6324 66.1816 75.638 66.1816 78.0886V89.9102C66.1816 92.3611 68.1872 94.3666 70.6381 94.3666H88.774C91.2249 94.3666 93.2305 92.3611 93.2305 89.9102V78.0886C93.2305 75.638 91.2249 73.6324 88.774 73.6324ZM79.7061 87.6887C77.9305 87.6887 76.4904 86.2486 76.4904 84.4728C76.4904 82.6966 77.9305 81.2571 79.7061 81.2571C81.4826 81.2571 82.9217 82.6966 82.9217 84.4728C82.9217 86.2486 81.4826 87.6887 79.7061 87.6887Z" fill="white"/>
                <path d="M72.3541 74.9184C71.6453 74.7547 71.1068 74.1302 71.0836 73.3688L70.9564 69.2366C70.8105 64.4694 74.5704 60.4724 79.3376 60.3261C84.1047 60.1802 88.1022 63.9396 88.2481 68.7067L88.3661 72.5711C88.3941 73.4776 87.6817 74.2348 86.7754 74.2625C85.8699 74.2904 85.1123 73.5782 85.0846 72.6719L84.966 68.8073C84.8752 65.8498 82.3958 63.5172 79.4383 63.6077C76.4808 63.6985 74.1481 66.1785 74.2385 69.1359L74.3654 73.2684C74.3934 74.1745 73.6811 74.9318 72.7747 74.9595C72.6301 74.964 72.4889 74.9495 72.3541 74.9184Z" fill="white"/>
            </g>
        </mask>
        <g mask="url(#mask1_9_1177)">
            <path d="M109.199 52.5618L80.9577 44.0891C80.5621 43.9703 80.1408 43.9703 79.7453 44.0891L51.5027 52.5618C50.6111 52.8294 50 53.6507 50 54.582V85.6483C50 89.6893 51.6358 93.8253 54.8619 97.9427C57.3258 101.087 60.7346 104.244 64.9935 107.327C72.1478 112.506 79.1932 115.683 79.4896 115.816C79.7636 115.939 80.0576 116 80.3513 116C80.6453 116 80.9394 115.939 81.2133 115.816C81.5094 115.683 88.5544 112.506 95.7094 107.327C99.968 104.244 103.377 101.087 105.841 97.9427C109.067 93.8257 110.703 89.6893 110.703 85.6483V54.582C110.703 53.6507 110.092 52.8294 109.199 52.5618Z" fill="white"/>
            <path d="M88.774 73.6324H70.6381C68.1872 73.6324 66.1816 75.638 66.1816 78.0886V89.9102C66.1816 92.3611 68.1872 94.3666 70.6381 94.3666H88.774C91.2249 94.3666 93.2305 92.3611 93.2305 89.9102V78.0886C93.2305 75.638 91.2249 73.6324 88.774 73.6324ZM79.7061 87.6887C77.9305 87.6887 76.4904 86.2486 76.4904 84.4728C76.4904 82.6966 77.9305 81.2571 79.7061 81.2571C81.4826 81.2571 82.9217 82.6966 82.9217 84.4728C82.9217 86.2486 81.4826 87.6887 79.7061 87.6887Z" fill="white"/>
            <path d="M72.3541 74.9184C71.6453 74.7547 71.1068 74.1302 71.0836 73.3688L70.9564 69.2366C70.8105 64.4694 74.5704 60.4724 79.3376 60.3261C84.1047 60.1802 88.1022 63.9396 88.2481 68.7067L88.3661 72.5711C88.3941 73.4776 87.6817 74.2348 86.7754 74.2625C85.8699 74.2904 85.1123 73.5782 85.0846 72.6719L84.966 68.8073C84.8752 65.8498 82.3958 63.5172 79.4383 63.6077C76.4808 63.6985 74.1481 66.1785 74.2385 69.1359L74.3654 73.2684C74.3934 74.1745 73.6811 74.9318 72.7747 74.9595C72.6301 74.964 72.4889 74.9495 72.3541 74.9184Z" fill="white"/>
        </g>
    </mask>
    <g mask="url(#mask0_9_1177)">
        <path d="M109.199 52.5618L80.9577 44.0891C80.5621 43.9703 80.1408 43.9703 79.7453 44.0891L51.5027 52.5618C50.6111 52.8294 50 53.6507 50 54.582V85.6483C50 89.6893 51.6358 93.8253 54.8619 97.9427C57.3258 101.087 60.7346 104.244 64.9935 107.327C72.1478 112.506 79.1932 115.683 79.4896 115.816C79.7636 115.939 80.0576 116 80.3513 116C80.6453 116 80.9394 115.939 81.2133 115.816C81.5094 115.683 88.5544 112.506 95.7094 107.327C99.968 104.244 103.377 101.087 105.841 97.9427C109.067 93.8257 110.703 89.6893 110.703 85.6483V54.582C110.703 53.6507 110.092 52.8294 109.199 52.5618Z" fill="#A10459"/>
        <path d="M88.774 73.6324H70.6381C68.1872 73.6324 66.1816 75.638 66.1816 78.0886V89.9102C66.1816 92.3611 68.1872 94.3666 70.6381 94.3666H88.774C91.2249 94.3666 93.2305 92.3611 93.2305 89.9102V78.0886C93.2305 75.638 91.2249 73.6324 88.774 73.6324ZM79.7061 87.6887C77.9305 87.6887 76.4904 86.2486 76.4904 84.4728C76.4904 82.6966 77.9305 81.2571 79.7061 81.2571C81.4826 81.2571 82.9217 82.6966 82.9217 84.4728C82.9217 86.2486 81.4826 87.6887 79.7061 87.6887Z" fill="white"/>
        <path d="M72.3541 74.9184C71.6453 74.7547 71.1068 74.1302 71.0836 73.3688L70.9564 69.2366C70.8105 64.4694 74.5704 60.4724 79.3376 60.3261C84.1047 60.1802 88.1022 63.9396 88.2481 68.7067L88.3661 72.5711C88.3941 73.4776 87.6817 74.2348 86.7754 74.2625C85.8699 74.2904 85.1123 73.5782 85.0846 72.6719L84.966 68.8073C84.8752 65.8498 82.3958 63.5172 79.4383 63.6077C76.4808 63.6985 74.1481 66.1785 74.2385 69.1359L74.3654 73.2684C74.3934 74.1745 73.6811 74.9318 72.7747 74.9595C72.6301 74.964 72.4889 74.9495 72.3541 74.9184Z" fill="white"/>
    </g>
</svg>
