<svg width="160" height="160" viewBox="0 0 160 160" fill="none" xmlns="http://www.w3.org/2000/svg">
    <path d="M139.526 29.0352C137.317 29.0352 135.521 27.2389 135.521 25.0308C135.521 22.8229 137.317 21.0266 139.526 21.0266C141.733 21.0266 143.53 22.8229 143.53 25.0308C143.53 27.2389 141.733 29.0352 139.526 29.0352ZM139.526 21.717C137.698 21.717 136.212 23.2036 136.212 25.0308C136.212 26.8581 137.698 28.3448 139.526 28.3448C141.353 28.3448 142.839 26.8581 142.839 25.0308C142.839 23.2036 141.353 21.717 139.526 21.717Z" fill="#FF65B8"/>
    <path d="M25.1761 42.4475C25.2601 43.4746 24.4957 44.3752 23.4687 44.4591C22.4415 44.5431 21.5409 43.7788 21.457 42.7516C21.373 41.7246 22.1373 40.824 23.1644 40.74C24.1914 40.656 25.0921 41.4205 25.1761 42.4475Z" fill="#DE68A9"/>
    <path d="M13.29 58.7825C12.5165 58.7227 11.7834 58.4225 11.1805 57.9108C10.4242 57.2688 9.96303 56.3707 9.88212 55.3818C9.71525 53.3405 11.2401 51.5438 13.2815 51.3769C15.3228 51.2099 17.1192 52.735 17.2862 54.7763C17.453 56.8176 15.9283 58.6141 13.8869 58.7811C13.6863 58.7976 13.4868 58.7977 13.29 58.7825ZM13.819 52.0639C13.6612 52.0517 13.5004 52.0518 13.3378 52.065C11.6759 52.201 10.4344 53.6637 10.5703 55.3255C10.6361 56.1306 11.0115 56.8618 11.6272 57.3844C12.2431 57.9071 13.0257 58.1588 13.8308 58.0928C15.4925 57.957 16.7339 56.4944 16.598 54.8324C16.4754 53.3332 15.2732 52.1762 13.819 52.0639Z" fill="#FF65B8"/>
    <path d="M38.7894 141.813C37.6272 141.813 36.6816 140.868 36.6816 139.706C36.6816 138.544 37.6272 137.598 38.7894 137.598C39.9515 137.598 40.8968 138.544 40.8968 139.706C40.8968 140.868 39.9515 141.813 38.7894 141.813ZM38.7894 138.151C37.9318 138.151 37.2342 138.848 37.2342 139.706C37.2342 140.563 37.9318 141.261 38.7894 141.261C39.6469 141.261 40.3444 140.563 40.3444 139.706C40.3444 138.848 39.6469 138.151 38.7894 138.151Z" fill="#DE68A9"/>
    <path d="M37.814 47.3733C27.8321 54.8927 19.471 64.0028 16.3852 75.056C12.4956 88.9879 17.075 104.121 26.0837 115.417C42.7332 136.293 74.7936 144.232 100.423 133.826C126.289 123.324 141.175 95.2937 144.531 69.7333C145.915 59.1931 144.407 48.0469 138.412 39.2551C131.155 28.6115 117.933 22.5699 104.612 21.7293C91.2912 20.8887 77.9232 24.772 65.9621 30.72C57.0342 35.1595 46.7714 40.6259 37.814 47.3733Z" fill="#F02896" fill-opacity="0.08"/>
    <path d="M146.113 111.971C149.244 111.882 151.855 114.348 151.945 117.479C152.035 120.611 149.569 123.222 146.437 123.312C143.305 123.401 140.694 120.935 140.605 117.804C140.515 114.672 142.981 112.061 146.113 111.971Z" fill="#FE34A3"/>
    <path d="M146.567 114.453H146.566H146.161H146.16C145.306 114.453 144.61 115.093 144.61 115.88H144.611V116.973H145.335V115.88C145.335 115.46 145.705 115.119 146.161 115.119H146.566C147.021 115.119 147.392 115.46 147.392 115.88V116.973H148.115V115.88H148.116C148.116 115.093 147.421 114.453 146.567 114.453Z" fill="white"/>
    <path d="M148.843 120.375C148.843 120.625 148.624 120.827 148.355 120.827H144.371C144.102 120.827 143.883 120.625 143.883 120.375V117.281C143.883 117.031 144.102 116.829 144.371 116.829H148.355C148.624 116.829 148.843 117.031 148.843 117.281V120.375Z" fill="white"/>
    <path d="M146.024 118.587C146.024 118.734 146.124 118.838 146.156 118.867C146.162 118.873 146.168 118.879 146.175 118.886C146.186 118.897 146.196 118.907 146.201 118.91C146.207 118.914 146.209 118.934 146.205 118.955L146.127 119.395C146.124 119.416 146.137 119.433 146.156 119.433H146.571C146.591 119.433 146.604 119.416 146.6 119.395L146.522 118.955C146.518 118.934 146.52 118.914 146.526 118.91C146.53 118.907 146.539 118.899 146.548 118.89C146.557 118.881 146.566 118.873 146.575 118.864C146.61 118.833 146.704 118.736 146.704 118.587C146.704 118.385 146.551 118.22 146.363 118.22C146.176 118.22 146.024 118.385 146.024 118.587Z" fill="#FE34A3"/>
    <path d="M146.571 119.519H146.156C146.122 119.519 146.089 119.504 146.068 119.478C146.045 119.451 146.036 119.416 146.042 119.38L146.118 118.951C146.116 118.949 146.114 118.947 146.112 118.945C146.108 118.94 146.102 118.935 146.097 118.93C146.06 118.896 145.937 118.769 145.937 118.587C145.937 118.337 146.128 118.134 146.364 118.134C146.599 118.134 146.79 118.337 146.79 118.587C146.79 118.769 146.68 118.887 146.632 118.929C146.624 118.936 146.617 118.943 146.61 118.95C146.61 118.95 146.609 118.951 146.609 118.951L146.685 119.38C146.691 119.416 146.682 119.452 146.659 119.478C146.638 119.504 146.605 119.519 146.571 119.519ZM146.223 119.347H146.504L146.437 118.97C146.427 118.911 146.441 118.865 146.476 118.84C146.478 118.838 146.481 118.835 146.487 118.829C146.496 118.819 146.507 118.81 146.518 118.8C146.541 118.779 146.617 118.702 146.617 118.587C146.617 118.432 146.504 118.307 146.364 118.307C146.224 118.307 146.11 118.432 146.11 118.587C146.11 118.699 146.19 118.781 146.214 118.803C146.222 118.811 146.23 118.818 146.237 118.826C146.244 118.833 146.249 118.838 146.251 118.84C146.299 118.873 146.296 118.935 146.29 118.97L146.223 119.347ZM146.575 118.981C146.574 118.981 146.574 118.982 146.573 118.982C146.574 118.982 146.574 118.981 146.575 118.981ZM146.248 118.838C146.249 118.838 146.249 118.838 146.249 118.838C146.249 118.838 146.249 118.838 146.248 118.838Z" fill="#FE34A3"/>
    <path d="M105.25 147.717C105.25 147.717 107.1 147.567 109.15 145.083C109.5 144.533 112.533 144.933 113.767 144.333C115 143.733 117.933 140.2 118.6 139.633C119.267 139.067 121.6 137.767 124.3 139.467C127 141.167 132.667 139.167 132.467 134.467C132.267 129.767 124.3 129.033 124.033 134.667C123.767 140.3 133.153 141.414 136.267 136.667C138.3 133.567 143.067 131.8 143.6 131.167C144.133 130.533 145.867 129.267 146.533 123.333" stroke="#FF70BF" stroke-linecap="round" stroke-linejoin="round" stroke-dasharray="15 15"/>
    <mask id="mask0_9_4037" style="mask-type:luminance" maskUnits="userSpaceOnUse" x="0" y="0" width="161" height="161">
        <path d="M0.640381 0.319824H160.64V160.32H0.640381V0.319824Z" fill="white"/>
    </mask>
    <g mask="url(#mask0_9_4037)">
        <path d="M88.8119 26.6162L84.1202 26.0003C74.1246 24.6883 65.0081 31.1138 63.799 40.3254L62.1549 52.9428C62.1371 53.0789 62.2335 53.2046 62.3697 53.2224L70.7168 54.3181C70.8529 54.336 70.9786 54.2395 70.9964 54.1033L72.6524 41.4875C73.2696 36.7852 77.9374 33.5062 83.0575 34.1782L87.7268 34.7911C92.8482 35.4634 96.5116 39.836 95.8944 44.5383L92.8328 67.8623C92.8149 67.9984 92.9101 68.1239 93.0463 68.1417L101.395 69.2376C101.531 69.2554 101.655 69.1588 101.673 69.0226L104.725 45.7741C104.736 45.7513 104.743 45.7267 104.746 45.7003C105.956 36.4886 98.8075 27.9282 88.8119 26.6162ZM104.241 45.634L101.212 68.712L93.3582 67.6811L96.3875 44.6031C97.0404 39.6284 93.1839 35.0058 87.7915 34.298L83.1222 33.6851C77.7298 32.9773 72.8123 36.4482 72.1593 41.4228L70.5356 53.7927L62.6816 52.7618C62.6816 52.7618 64.3081 40.3398 64.3033 40.315C65.5157 31.4171 74.3586 25.2206 84.0555 26.4934L88.7472 27.1093C98.4427 28.3819 105.387 36.6507 104.263 45.5602C104.252 45.5829 104.245 45.6075 104.241 45.634Z" fill="#121111"/>
        <path d="M104.263 45.5602C104.252 45.5829 104.245 45.6075 104.241 45.634L101.212 68.712L93.3582 67.6811L96.3875 44.603C97.0404 39.6284 93.1839 35.0058 87.7915 34.298L83.1222 33.6851C77.7298 32.9773 72.8123 36.4481 72.1593 41.4228L70.5356 53.7927L62.6816 52.7618C62.6816 52.7618 64.3081 40.3398 64.3033 40.315C65.5156 31.4171 74.3586 25.2206 84.0555 26.4934L88.7472 27.1092C98.4427 28.3819 105.387 36.6506 104.263 45.5602Z" fill="#A1045A"/>
        <path d="M102.528 47.2393C102.521 47.2384 102.514 47.2373 102.506 47.2357C102.372 47.206 102.287 47.0731 102.317 46.9389C102.76 44.935 102.744 42.8906 102.272 40.8625C101.814 38.8979 100.952 37.0442 99.709 35.3529C96.823 31.4251 92.2526 28.9206 87.1709 28.4822C87.1673 28.4818 87.1636 28.4814 87.1599 28.4809L87.1482 28.4793C87.012 28.4615 86.9161 28.3366 86.9339 28.2003C86.9518 28.064 87.0767 27.968 87.213 27.9858L87.2192 27.9867C92.4419 28.439 97.1402 31.0165 100.11 35.0583C101.393 36.8041 102.283 38.719 102.756 40.7494C103.246 42.8506 103.262 44.9691 102.803 47.0463C102.775 47.1733 102.655 47.2559 102.528 47.2393Z" fill="#121111"/>
        <path d="M112.985 105.553C112.985 108.722 110.214 111.291 106.796 111.291H56.2612C52.8432 111.291 50.0725 108.722 50.0725 105.553V66.3021C50.0725 63.1333 52.8432 60.5643 56.2612 60.5643H106.796C110.214 60.5643 112.985 63.1333 112.985 66.3021V105.553Z" fill="#A1045A"/>
        <path d="M106.796 111.54H56.2612C52.7116 111.54 49.8237 108.854 49.8237 105.553V66.3021C49.8237 63.001 52.7116 60.3157 56.2612 60.3157H106.796C110.346 60.3157 113.234 63.001 113.234 66.3021V105.553C113.234 108.854 110.346 111.54 106.796 111.54ZM56.2612 60.8133C52.986 60.8133 50.3215 63.2755 50.3215 66.3021V105.553C50.3215 108.58 52.986 111.042 56.2612 111.042H106.796C110.071 111.042 112.736 108.58 112.736 105.553V66.3021C112.736 63.2755 110.071 60.8133 106.796 60.8133H56.2612Z" fill="#121111"/>
        <path d="M77.5715 83.1445C77.5715 84.8457 78.7438 86.0589 79.1102 86.3965C79.1858 86.4662 79.2595 86.5381 79.331 86.6126C79.4578 86.7447 79.581 86.8602 79.6342 86.8946C79.703 86.9389 79.7243 87.1741 79.6814 87.4166L78.7773 92.5423C78.7345 92.7854 78.8869 92.9837 79.1158 92.9837H83.9409C84.1701 92.9837 84.3222 92.7854 84.2797 92.5423L83.3755 87.4166C83.3327 87.1741 83.3539 86.9389 83.423 86.8946C83.4695 86.8645 83.5701 86.7718 83.6795 86.6603C83.7801 86.5581 83.8839 86.4598 83.9906 86.3649C84.3983 86.0019 85.4857 84.8723 85.4857 83.1445C85.4857 80.7882 83.7105 78.8714 81.5285 78.8714C79.3462 78.8714 77.5715 80.7882 77.5715 83.1445Z" fill="white"/>
        <path d="M83.941 93.2326H79.1161C78.9362 93.2326 78.7754 93.1592 78.6633 93.0256C78.5458 92.8856 78.4981 92.6937 78.5324 92.4992L79.4365 87.3734C79.4612 87.2344 79.457 87.1194 79.4474 87.0656C79.3466 86.985 79.2117 86.8476 79.1516 86.785C79.0856 86.7161 79.015 86.647 78.9418 86.5796C78.562 86.2296 77.3228 84.9476 77.3228 83.1445C77.3228 80.651 79.2094 78.6225 81.5286 78.6225C83.8478 78.6225 85.7349 80.651 85.7349 83.1445C85.7349 84.951 84.6309 86.1285 84.1564 86.5509C84.05 86.6454 83.9492 86.741 83.8572 86.8348C83.7826 86.9106 83.686 87.0052 83.6101 87.0658C83.6005 87.1196 83.5964 87.2344 83.6209 87.3733L84.525 92.4992C84.5592 92.694 84.5112 92.8858 84.3936 93.0258C84.2816 93.1592 84.1209 93.2326 83.941 93.2326ZM81.5286 79.1202C79.4838 79.1202 77.8204 80.9256 77.8204 83.1445C77.8204 84.745 78.9368 85.8982 79.279 86.2136C79.3597 86.2878 79.4378 86.3642 79.5109 86.4404C79.6566 86.5921 79.7485 86.6714 79.7702 86.6861C80.0148 86.8433 79.9518 87.3184 79.9266 87.4601L79.0226 92.5856C79.014 92.6348 79.022 92.6785 79.0446 92.7056C79.0612 92.7253 79.0845 92.7349 79.1161 92.7349H83.941C83.9726 92.7349 83.9961 92.7253 84.0126 92.7056C84.0353 92.6785 84.0434 92.6346 84.0348 92.5853L83.1306 87.4598C83.1056 87.318 83.0429 86.8428 83.289 86.6852C83.3082 86.6721 83.3848 86.6053 83.502 86.486C83.6018 86.3844 83.7108 86.281 83.8254 86.1789C84.2498 85.8013 85.2369 84.7494 85.2369 83.1445C85.2369 80.9256 83.5734 79.1202 81.5286 79.1202Z" fill="#121111"/>
        <path d="M83.9412 93.2485H79.1162C78.9342 93.2485 78.7648 93.1709 78.6513 93.0358C78.5308 92.8921 78.4818 92.6956 78.5169 92.4964L79.4208 87.3706C79.4442 87.2386 79.4414 87.1282 79.4329 87.0741C79.3316 86.9922 79.1996 86.8578 79.1402 86.796C79.0746 86.7276 79.0044 86.6588 78.9312 86.5912C78.5501 86.2401 77.3069 84.9541 77.3069 83.1445C77.3069 80.6422 79.2009 78.6066 81.5288 78.6066C83.8569 78.6066 85.7509 80.6422 85.7509 83.1445C85.7509 84.9574 84.643 86.1389 84.1669 86.5626C84.0608 86.657 83.9606 86.7524 83.8686 86.8458C83.7954 86.9205 83.7009 87.0129 83.6249 87.0744C83.6164 87.1285 83.6132 87.2388 83.6365 87.3706L84.5406 92.4964C84.5756 92.6958 84.5266 92.8925 84.4061 93.036C84.2909 93.173 84.1258 93.2485 83.9412 93.2485Z" fill="white"/>
        <path d="M83.9412 93.4973H79.1161C78.8604 93.4973 78.6214 93.3874 78.4606 93.1957C78.2926 92.9957 78.2238 92.725 78.2717 92.4531L79.1758 87.3273C79.185 87.2751 79.1889 87.2294 79.1898 87.1931C79.1026 87.1139 79.0137 87.0234 78.9608 86.9682C78.8988 86.9037 78.8321 86.8385 78.7624 86.7743C78.3626 86.4059 77.0581 85.0555 77.0581 83.1445C77.0581 80.5051 79.0636 78.3578 81.5288 78.3578C83.9941 78.3578 85.9997 80.5051 85.9997 83.1445C85.9997 85.0583 84.8337 86.3026 84.3324 86.7486C84.2304 86.8395 84.1341 86.9307 84.0462 87.0202C83.98 87.0877 83.9202 87.1457 83.8677 87.1934C83.8688 87.2295 83.8725 87.2753 83.8817 87.3273L84.7858 92.453C84.8334 92.7254 84.7645 92.9961 84.5965 93.1959C84.4333 93.3903 84.2005 93.4973 83.9412 93.4973ZM81.5288 78.8554C79.3381 78.8554 77.5558 80.7795 77.5558 83.1445C77.5558 84.853 78.7376 86.0743 79.0997 86.4081C79.1769 86.4793 79.251 86.5518 79.32 86.6237C79.3704 86.6762 79.4976 86.8065 79.5893 86.8806C79.6372 86.9194 79.669 86.9743 79.6786 87.0353C79.6948 87.1371 79.69 87.2787 79.666 87.4141L78.7618 92.5395C78.7396 92.6661 78.7688 92.7886 78.8418 92.8757C78.908 92.9543 79.008 92.9995 79.1161 92.9995H83.9412C84.0525 92.9995 84.1474 92.9567 84.2154 92.8758C84.2885 92.7887 84.3177 92.6661 84.2956 92.5391L83.3914 87.4139C83.3677 87.2787 83.363 87.1374 83.3789 87.0358C83.3885 86.9749 83.4204 86.9194 83.4684 86.8807C83.5228 86.8367 83.5997 86.7645 83.691 86.6715C83.7866 86.5742 83.8912 86.475 84.0016 86.3767C84.4526 85.9753 85.5018 84.8567 85.5018 83.1445C85.5018 80.7795 83.7196 78.8554 81.5288 78.8554Z" fill="#121111"/>
        <path d="M83.5498 92.6478H80.843C80.7056 92.6478 80.5942 92.5365 80.5942 92.399C80.5942 92.2615 80.7056 92.1502 80.843 92.1502H83.5498C83.6873 92.1502 83.7988 92.2615 83.7988 92.399C83.7988 92.5365 83.6873 92.6478 83.5498 92.6478Z" fill="#121111"/>
        <path d="M82.2043 79.4919C82.2043 79.6293 82.0923 79.7413 81.955 79.7413C81.875 79.7413 81.795 79.7439 81.715 79.7519C80.0137 79.8786 78.6483 81.3626 78.523 83.2186C78.515 83.3119 78.5123 83.4053 78.5123 83.4999C78.5123 83.6373 78.4003 83.7493 78.263 83.7493C78.1257 83.7493 78.0137 83.6373 78.0137 83.4999C78.0137 81.1533 79.7817 79.2426 81.955 79.2426C82.0923 79.2426 82.2043 79.3546 82.2043 79.4919Z" fill="black"/>
        <path d="M110.781 101.484C110.643 101.484 110.532 101.373 110.532 101.235V73.0069C110.532 72.8694 110.643 72.7579 110.781 72.7579C110.918 72.7579 111.03 72.8694 111.03 73.0069V101.235C111.03 101.373 110.918 101.484 110.781 101.484Z" fill="#121111"/>
        <path d="M51.8507 78.0534C51.7133 78.0534 51.6018 77.9419 51.6018 77.8045V67.9223C51.6018 64.6214 54.4897 61.9358 58.0393 61.9358H66.0929C66.2303 61.9358 66.3418 62.0473 66.3418 62.1847C66.3418 62.3222 66.2303 62.4337 66.0929 62.4337H58.0393C54.7642 62.4337 52.0995 64.8958 52.0995 67.9223V77.8045C52.0995 77.9419 51.9882 78.0534 51.8507 78.0534Z" fill="#121111"/>
    </g>
    <mask id="mask1_9_4037" style="mask-type:luminance" maskUnits="userSpaceOnUse" x="-2" y="-2" width="165" height="165">
        <path d="M2.85864 -1.33185L162.81 2.62978L158.848 162.581L-1.10299 158.619L2.85864 -1.33185Z" fill="white"/>
    </mask>
    <g mask="url(#mask1_9_4037)">
        <path d="M126.551 109.965L65.0969 122.193C59.4351 123.32 53.9322 119.644 52.8056 113.982C51.6791 108.32 55.3555 102.818 61.0173 101.691L122.471 89.4624C128.133 88.3358 133.635 92.0122 134.762 97.6738C135.889 103.335 132.212 108.838 126.551 109.965Z" fill="#831752"/>
        <path d="M62.7712 122.643C60.7693 122.594 58.8184 121.98 57.1126 120.84C54.7359 119.252 53.1197 116.834 52.5619 114.031C52.004 111.227 52.5711 108.374 54.159 105.998C55.7468 103.621 58.1652 102.005 60.9687 101.447L122.423 89.2183C125.226 88.6605 128.079 89.2277 130.456 90.8156C132.832 92.4035 134.449 94.822 135.006 97.6253C135.564 100.429 134.997 103.282 133.409 105.658C131.821 108.035 129.403 109.651 126.599 110.209L65.1456 122.438C64.3542 122.595 63.5587 122.663 62.7712 122.643ZM124.784 89.5104C124.033 89.4918 123.274 89.5563 122.52 89.7065L61.0658 101.935C58.3928 102.467 56.0868 104.008 54.5729 106.274C53.0589 108.54 52.518 111.261 53.0499 113.933C53.5819 116.607 55.1228 118.912 57.389 120.426C59.6552 121.941 62.3754 122.481 65.0484 121.949L126.502 109.721C129.175 109.189 131.481 107.648 132.995 105.382C134.509 103.116 135.05 100.396 134.518 97.7224C133.986 95.0494 132.445 92.7436 130.179 91.2296C128.553 90.143 126.692 89.5576 124.784 89.5104Z" fill="#121111"/>
        <path d="M87.7582 116.214C87.6442 116.211 87.5434 116.13 87.5204 116.013C87.4937 115.878 87.5817 115.747 87.7165 115.721L124.514 108.469C128.016 107.784 130.591 106.212 131.96 103.924C133.197 101.857 133.396 99.2881 132.535 96.4955C132.495 96.3642 132.569 96.2248 132.7 96.1843C132.831 96.1438 132.971 96.2175 133.011 96.3489C133.915 99.28 133.699 101.988 132.387 104.18C130.944 106.592 128.254 108.244 124.61 108.958L87.8127 116.209C87.7944 116.213 87.7762 116.214 87.7582 116.214Z" fill="#121111"/>
        <path d="M72.2122 113.226C71.9387 113.592 71.5795 113.82 71.1354 113.908C70.7798 113.979 70.4455 113.896 70.1329 113.657C69.8199 113.42 69.6282 113.123 69.5576 112.767C69.4956 112.457 69.5867 112.103 69.8317 111.708C70.0763 111.313 70.7365 110.859 71.812 110.344C70.639 110.255 69.8596 110.081 69.4738 109.822C69.0875 109.565 68.8636 109.28 68.8016 108.969C68.731 108.614 68.7944 108.266 68.9926 107.926C69.1902 107.587 69.467 107.382 69.8226 107.311C70.2667 107.222 70.6843 107.29 71.075 107.512C71.4657 107.735 71.9428 107.986 72.5067 108.266C72.3824 107.875 72.2554 107.525 72.1246 107.216C71.9941 106.908 71.9043 106.631 71.8556 106.387C71.7672 105.942 71.8121 105.558 71.99 105.234C72.168 104.91 72.4678 104.706 72.8901 104.622C73.3342 104.534 73.705 104.598 74.0027 104.816C74.3 105.034 74.493 105.366 74.5814 105.81C74.6389 106.099 74.6549 106.413 74.6303 106.752C74.6055 107.092 74.6194 107.453 74.6726 107.835C75.0994 107.312 75.4583 106.882 75.7499 106.547C76.0411 106.212 76.3867 106.005 76.7865 105.925C77.1416 105.854 77.476 105.938 77.789 106.176C78.1018 106.414 78.2941 106.711 78.3646 107.066C78.4267 107.377 78.323 107.727 78.0539 108.115C77.7847 108.504 77.1257 108.964 76.077 109.496C77.245 109.564 78.0289 109.731 78.4285 109.998C78.828 110.265 79.0586 110.554 79.1204 110.864C79.1912 111.22 79.1274 111.568 78.9296 111.907C78.7315 112.247 78.4546 112.452 78.0996 112.522C77.6996 112.602 77.2998 112.538 76.9003 112.328C76.5004 112.119 76.0035 111.854 75.4087 111.534C75.5057 111.907 75.631 112.246 75.784 112.55C75.9367 112.855 76.0423 113.151 76.0996 113.44C76.1881 113.885 76.1376 114.27 75.9486 114.596C75.7592 114.922 75.4426 115.13 74.9986 115.218C74.5763 115.302 74.2212 115.229 73.9326 114.997C73.6443 114.766 73.4558 114.428 73.3673 113.984C73.3143 113.717 73.289 113.416 73.2916 113.081C73.2942 112.746 73.2777 112.374 73.2428 111.965C72.8292 112.44 72.4858 112.86 72.2122 113.226Z" fill="white"/>
        <path d="M74.6331 115.5C74.31 115.492 74.0231 115.389 73.7769 115.191C73.443 114.924 73.2231 114.534 73.1233 114.032C73.0673 113.75 73.0401 113.43 73.0428 113.079C73.0439 112.927 73.041 112.764 73.0338 112.593C72.7956 112.878 72.5872 113.14 72.4116 113.375C72.1013 113.79 71.6883 114.052 71.184 114.152C70.7567 114.237 70.3523 114.137 69.982 113.855C69.6212 113.581 69.3961 113.232 69.3133 112.816C69.2389 112.442 69.3422 112.025 69.62 111.577C69.8258 111.245 70.2652 110.891 70.9549 110.505C70.1888 110.4 69.6553 110.243 69.3352 110.029C68.8944 109.735 68.6326 109.394 68.5575 109.017C68.475 108.602 68.5488 108.193 68.7774 107.801C69.012 107.398 69.3473 107.151 69.774 107.067C70.2763 106.967 70.7553 107.044 71.198 107.295C71.452 107.44 71.7452 107.598 72.0742 107.768C72.0148 107.606 71.9551 107.454 71.8955 107.313C71.7589 106.991 71.6633 106.695 71.6116 106.435C71.5119 105.934 71.5659 105.49 71.7718 105.114C71.9863 104.724 72.3462 104.476 72.8416 104.378C73.3545 104.276 73.7947 104.356 74.1497 104.615C74.4976 104.871 74.7249 105.256 74.8255 105.761C74.8868 106.069 74.9047 106.409 74.8787 106.77C74.8684 106.91 74.8652 107.055 74.869 107.204C75.1356 106.882 75.3644 106.611 75.5622 106.383C75.8888 106.008 76.2845 105.771 76.7381 105.681C77.1642 105.596 77.5685 105.696 77.9396 105.977C78.3012 106.253 78.5262 106.603 78.6088 107.017C78.6841 107.396 78.5661 107.813 78.2582 108.257C78.0357 108.578 77.5967 108.929 76.9251 109.32C77.6944 109.413 78.2349 109.569 78.5666 109.791C79.0211 110.094 79.2896 110.439 79.3645 110.816C79.4471 111.231 79.3731 111.64 79.1446 112.032C78.9101 112.435 78.5748 112.682 78.148 112.767C77.6922 112.857 77.2334 112.784 76.7847 112.548C76.5128 112.406 76.1983 112.24 75.8324 112.044C75.8855 112.182 75.9436 112.314 76.0064 112.438C76.1691 112.763 76.2825 113.084 76.3439 113.391C76.444 113.895 76.3834 114.342 76.1639 114.721C75.9384 115.11 75.5626 115.359 75.0471 115.462C74.9033 115.491 74.7651 115.503 74.6331 115.5ZM73.2489 111.716C73.2728 111.716 73.2967 111.72 73.3201 111.728C73.4151 111.759 73.4822 111.844 73.4908 111.944C73.5265 112.363 73.5431 112.746 73.5405 113.083C73.5381 113.4 73.5621 113.686 73.6116 113.935C73.6889 114.324 73.8448 114.608 74.0883 114.803C74.3185 114.987 74.6003 115.043 74.95 114.974C75.3242 114.899 75.5804 114.735 75.7333 114.471C75.8924 114.196 75.9325 113.875 75.8556 113.488C75.803 113.224 75.7041 112.946 75.5615 112.662C75.4011 112.343 75.2686 111.984 75.1677 111.596C75.1428 111.5 75.1771 111.399 75.255 111.338C75.3328 111.277 75.4395 111.268 75.5268 111.315C76.1325 111.641 76.6195 111.901 77.0156 112.107C77.3662 112.291 77.7048 112.347 78.0509 112.278C78.3356 112.222 78.5527 112.059 78.7146 111.782C78.8824 111.494 78.9353 111.209 78.8764 110.913C78.8281 110.671 78.6309 110.432 78.2902 110.205C78.0426 110.039 77.4553 109.825 76.0625 109.744C75.9502 109.737 75.8562 109.656 75.8333 109.546C75.8103 109.436 75.864 109.324 75.9644 109.273C77.2182 108.638 77.6813 108.215 77.8491 107.973C78.0772 107.644 78.1685 107.355 78.1205 107.114C78.0617 106.818 77.9039 106.576 77.6383 106.374C77.3823 106.179 77.1196 106.113 76.8352 106.169C76.4875 106.238 76.194 106.415 75.9378 106.71C75.6532 107.037 75.3025 107.456 74.8655 107.992C74.803 108.069 74.701 108.101 74.6056 108.075C74.5103 108.048 74.4398 107.967 74.4261 107.869C74.3709 107.473 74.356 107.091 74.3822 106.734C74.405 106.418 74.3899 106.123 74.3372 105.858C74.2607 105.474 74.1032 105.198 73.8555 105.017C73.6145 104.841 73.3145 104.791 72.9387 104.866C72.5894 104.935 72.3504 105.095 72.2081 105.354C72.058 105.628 72.0225 105.95 72.0997 106.338C72.1449 106.565 72.2304 106.828 72.3539 107.119C72.4856 107.43 72.6168 107.791 72.744 108.191C72.7742 108.286 72.7447 108.39 72.6688 108.455C72.5929 108.52 72.4855 108.534 72.396 108.489C71.832 108.209 71.346 107.953 70.9518 107.728C70.6115 107.534 70.258 107.478 69.8712 107.555C69.5864 107.611 69.3693 107.774 69.2075 108.051C69.0396 108.339 68.9867 108.624 69.0457 108.92C69.0941 109.163 69.2845 109.397 69.6118 109.615C69.8514 109.776 70.4307 109.989 71.8309 110.096C71.9432 110.105 72.0357 110.188 72.0564 110.299C72.0772 110.409 72.0209 110.52 71.9192 110.569C70.6399 111.181 70.1929 111.597 70.0433 111.839C69.8339 112.177 69.7526 112.473 69.8016 112.719C69.8606 113.016 70.0183 113.258 70.2834 113.459C70.5389 113.654 70.8016 113.721 71.0868 113.664C71.4722 113.587 71.775 113.395 72.0127 113.077C72.2874 112.71 72.6381 112.28 73.055 111.801C73.1046 111.744 73.176 111.714 73.2489 111.716Z" fill="#121111"/>
        <path d="M85.1963 110.643C84.9228 111.009 84.5636 111.236 84.1195 111.324C83.7639 111.395 83.4296 111.312 83.117 111.074C82.804 110.836 82.6124 110.539 82.5417 110.184C82.4798 109.873 82.5708 109.52 82.8159 109.124C83.0604 108.729 83.7206 108.275 84.7961 107.761C83.6232 107.671 82.8438 107.497 82.4579 107.239C82.0716 106.981 81.8477 106.696 81.7858 106.385C81.7151 106.03 81.7785 105.682 81.9767 105.343C82.1744 105.003 82.4512 104.798 82.8067 104.727C83.2508 104.639 83.6685 104.706 84.0591 104.928C84.4498 105.151 84.9269 105.402 85.4908 105.682C85.3665 105.291 85.2395 104.942 85.1087 104.633C84.9782 104.324 84.8885 104.048 84.8397 103.803C84.7514 103.359 84.7962 102.975 84.9742 102.65C85.1521 102.326 85.4521 102.122 85.8743 102.038C86.3183 101.95 86.6891 102.015 86.9869 102.233C87.2841 102.451 87.4771 102.782 87.5655 103.226C87.623 103.515 87.639 103.829 87.6144 104.169C87.5896 104.509 87.6035 104.87 87.6567 105.251C88.0835 104.728 88.4424 104.298 88.734 103.963C89.0252 103.628 89.371 103.421 89.7709 103.341C90.126 103.271 90.4601 103.354 90.7732 103.592C91.0859 103.83 91.2781 104.127 91.3488 104.482C91.4107 104.793 91.3072 105.143 91.038 105.531C90.7689 105.92 90.1098 106.38 89.0611 106.912C90.2291 106.98 91.0131 107.147 91.4126 107.414C91.8121 107.681 92.0427 107.97 92.1045 108.281C92.1754 108.636 92.1115 108.984 91.9137 109.323C91.7157 109.663 91.4388 109.868 91.0837 109.939C90.6837 110.018 90.2839 109.954 89.8844 109.744C89.4845 109.535 88.9876 109.271 88.3928 108.95C88.4899 109.324 88.6151 109.662 88.7682 109.966C88.9208 110.271 89.0264 110.568 89.0837 110.856C89.1722 111.301 89.1217 111.686 88.9328 112.012C88.7433 112.339 88.4267 112.546 87.9827 112.634C87.5605 112.718 87.2055 112.645 86.917 112.413C86.6285 112.182 86.44 111.845 86.3517 111.4C86.2985 111.133 86.2732 110.833 86.2757 110.497C86.2783 110.162 86.2618 109.79 86.227 109.381C85.8133 109.856 85.4699 110.276 85.1963 110.643Z" fill="white"/>
        <path d="M87.6173 112.916C87.2941 112.908 87.0074 112.805 86.7611 112.607C86.4273 112.34 86.2074 111.95 86.1076 111.448C86.0515 111.167 86.0244 110.846 86.0271 110.495C86.0282 110.343 86.0251 110.181 86.018 110.009C85.7797 110.294 85.5714 110.556 85.3957 110.791C85.0854 111.207 84.6726 111.468 84.1683 111.569C83.7408 111.653 83.3363 111.554 82.9662 111.271C82.6053 110.998 82.3802 110.648 82.2975 110.232C82.223 109.858 82.3263 109.441 82.6043 108.993C82.8099 108.661 83.2495 108.308 83.9391 107.922C83.1729 107.817 82.6396 107.659 82.3195 107.445C81.8786 107.151 81.6167 106.811 81.5416 106.434C81.4591 106.018 81.5331 105.609 81.7617 105.217C81.9962 104.815 82.3315 104.568 82.7583 104.483C83.2605 104.383 83.7395 104.46 84.1822 104.712C84.4362 104.856 84.7293 105.015 85.0583 105.185C84.9989 105.023 84.9392 104.87 84.8796 104.73C84.7429 104.407 84.6474 104.111 84.5957 103.851C84.496 103.351 84.5501 102.906 84.7562 102.53C84.9706 102.14 85.3304 101.893 85.8258 101.794C86.3387 101.692 86.779 101.772 87.1339 102.032C87.482 102.287 87.709 102.672 87.8096 103.177C87.8709 103.485 87.8888 103.825 87.8628 104.186C87.8525 104.327 87.8493 104.471 87.8531 104.62C88.1194 104.298 88.3485 104.027 88.5464 103.8C88.873 103.424 89.2686 103.187 89.7222 103.097C90.1483 103.012 90.5527 103.112 90.9239 103.394C91.2856 103.669 91.5104 104.019 91.5929 104.434C91.6682 104.812 91.5504 105.229 91.2425 105.673C91.0198 105.994 90.581 106.345 89.9092 106.736C90.6785 106.83 91.2192 106.985 91.5509 107.207C92.0055 107.511 92.2737 107.856 92.3486 108.232C92.4313 108.647 92.3574 109.056 92.1289 109.448C91.8943 109.851 91.5589 110.098 91.1322 110.183C90.6765 110.273 90.2177 110.2 89.7688 109.965C89.4965 109.822 89.182 109.656 88.8165 109.46C88.8696 109.598 88.9277 109.73 88.9905 109.855C89.1532 110.179 89.2666 110.5 89.328 110.808C89.4281 111.311 89.3676 111.758 89.1482 112.137C88.9226 112.526 88.5468 112.776 88.0315 112.878C87.8875 112.907 87.7493 112.92 87.6173 112.916ZM86.2332 109.132C86.2569 109.133 86.2809 109.137 86.3043 109.144C86.3993 109.175 86.4666 109.26 86.4751 109.36C86.5107 109.779 86.5273 110.162 86.5247 110.499C86.5224 110.816 86.5462 111.103 86.5957 111.351C86.673 111.74 86.8291 112.024 87.0726 112.219C87.3027 112.404 87.5845 112.46 87.9342 112.39C88.3083 112.316 88.5645 112.151 88.7174 111.887C88.8766 111.612 88.9167 111.291 88.8397 110.905C88.7871 110.641 88.6884 110.362 88.5458 110.078C88.3854 109.759 88.2527 109.401 88.1519 109.013C88.1269 108.917 88.1613 108.815 88.2393 108.754C88.3171 108.693 88.4237 108.684 88.5109 108.731C89.1159 109.057 89.6028 109.316 89.9997 109.524C90.3503 109.708 90.6888 109.763 91.035 109.695C91.3197 109.638 91.5369 109.476 91.6988 109.198C91.8666 108.91 91.9196 108.626 91.8606 108.329C91.8123 108.087 91.615 107.848 91.2743 107.621C91.0267 107.455 90.4395 107.241 89.0467 107.16C88.9344 107.154 88.8404 107.073 88.8175 106.963C88.7945 106.853 88.8482 106.741 88.9486 106.69C90.2025 106.054 90.6656 105.632 90.8334 105.389C91.0614 105.061 91.1528 104.772 91.1047 104.531C91.0459 104.235 90.888 103.992 90.6224 103.79C90.3664 103.596 90.1037 103.529 89.8195 103.585C89.4718 103.655 89.1782 103.832 88.9221 104.126C88.6371 104.454 88.2863 104.873 87.8497 105.409C87.7873 105.485 87.685 105.518 87.5897 105.491C87.4944 105.464 87.4241 105.384 87.4104 105.286C87.3551 104.889 87.3401 104.507 87.3663 104.151C87.3891 103.834 87.374 103.539 87.3213 103.274C87.2448 102.89 87.0875 102.615 86.8397 102.433C86.5988 102.257 86.2986 102.207 85.9228 102.282C85.5735 102.352 85.3347 102.511 85.1924 102.77C85.0422 103.044 85.0067 103.366 85.084 103.754C85.1292 103.981 85.2145 104.244 85.338 104.536C85.4697 104.847 85.6011 105.207 85.7283 105.607C85.7585 105.702 85.7288 105.806 85.6529 105.871C85.577 105.936 85.4697 105.95 85.3804 105.905C84.8161 105.625 84.3301 105.369 83.936 105.144C83.5959 104.951 83.2421 104.894 82.8553 104.971C82.5705 105.028 82.3536 105.19 82.1917 105.468C82.0239 105.756 81.9709 106.04 82.0299 106.336C82.0783 106.579 82.2686 106.813 82.5959 107.032C82.8355 107.192 83.4148 107.405 84.8151 107.512C84.9274 107.521 85.0198 107.604 85.0405 107.715C85.0613 107.825 85.0052 107.936 84.9034 107.985C83.6241 108.597 83.177 109.013 83.0274 109.255C82.818 109.593 82.7367 109.889 82.7857 110.135C82.8447 110.432 83.0024 110.674 83.2675 110.875C83.5231 111.07 83.786 111.137 84.0711 111.08C84.4564 111.004 84.7594 110.812 84.9969 110.494C85.2717 110.126 85.6223 109.696 86.0392 109.218C86.0888 109.161 86.1601 109.13 86.2332 109.132Z" fill="#121111"/>
        <path d="M98.1806 108.059C97.907 108.425 97.5478 108.652 97.1038 108.741C96.7482 108.812 96.4139 108.728 96.1013 108.49C95.7883 108.253 95.5966 107.956 95.5259 107.6C95.464 107.289 95.5551 106.936 95.8001 106.541C96.0446 106.146 96.7049 105.691 97.7804 105.177C96.6074 105.087 95.828 104.913 95.4422 104.655C95.0559 104.397 94.8319 104.113 94.77 103.801C94.6993 103.446 94.7628 103.099 94.961 102.759C95.1586 102.42 95.4354 102.214 95.791 102.143C96.2351 102.055 96.6527 102.122 97.0433 102.344C97.4341 102.567 97.9112 102.818 98.4751 103.099C98.3507 102.708 98.2238 102.358 98.0931 102.049C97.9624 101.741 97.8727 101.464 97.824 101.219C97.7356 100.775 97.7805 100.391 97.9584 100.067C98.1364 99.7426 98.4363 99.5386 98.8585 99.4547C99.3026 99.3663 99.6733 99.4311 99.9711 99.6489C100.268 99.8669 100.461 100.198 100.55 100.642C100.607 100.931 100.623 101.246 100.599 101.585C100.574 101.925 100.588 102.286 100.641 102.668C101.068 102.144 101.427 101.715 101.718 101.38C102.009 101.044 102.355 100.837 102.755 100.758C103.11 100.687 103.444 100.771 103.757 101.008C104.07 101.247 104.262 101.543 104.333 101.898C104.395 102.21 104.291 102.56 104.022 102.948C103.753 103.336 103.094 103.796 102.045 104.328C103.213 104.396 103.997 104.563 104.397 104.83C104.796 105.097 105.027 105.386 105.089 105.697C105.16 106.053 105.096 106.4 104.898 106.74C104.7 107.079 104.423 107.285 104.068 107.355C103.668 107.435 103.268 107.37 102.869 107.161C102.469 106.952 101.972 106.687 101.377 106.366C101.474 106.74 101.599 107.079 101.752 107.383C101.905 107.688 102.011 107.984 102.068 108.273C102.156 108.717 102.106 109.102 101.917 109.428C101.728 109.755 101.411 109.962 100.967 110.051C100.545 110.135 100.19 110.061 99.9013 109.83C99.6128 109.599 99.4244 109.261 99.3359 108.816C99.2828 108.55 99.2576 108.249 99.26 107.913C99.2626 107.578 99.246 107.206 99.2112 106.797C98.7976 107.273 98.4541 107.693 98.1806 108.059Z" fill="white"/>
        <path d="M100.601 110.333C100.278 110.325 99.9916 110.222 99.7454 110.024C99.4116 109.756 99.1915 109.366 99.0916 108.865C99.0356 108.583 99.0086 108.263 99.0113 107.912C99.0124 107.76 99.0094 107.597 99.0023 107.425C98.764 107.711 98.5555 107.973 98.3799 108.208C98.0697 108.623 97.6567 108.885 97.1523 108.985C96.7251 109.07 96.3208 108.97 95.9505 108.688C95.5897 108.414 95.3644 108.065 95.2818 107.649C95.2073 107.275 95.3105 106.858 95.5885 106.41C95.7942 106.078 96.2336 105.724 96.9233 105.338C96.1572 105.233 95.6238 105.076 95.3037 104.862C94.8629 104.568 94.6009 104.227 94.5259 103.85C94.4433 103.435 94.5173 103.026 94.7459 102.634C94.9805 102.231 95.3158 101.984 95.7425 101.899C96.2446 101.799 96.7238 101.876 97.1665 102.128C97.4203 102.273 97.7136 102.431 98.0425 102.601C97.9832 102.439 97.9236 102.287 97.8639 102.146C97.7271 101.823 97.6316 101.528 97.5799 101.268C97.4803 100.767 97.5344 100.323 97.7404 99.947C97.9548 99.5569 98.3146 99.3092 98.81 99.2106C99.323 99.1085 99.7633 99.1883 100.118 99.4481C100.466 99.7032 100.693 100.089 100.794 100.594C100.855 100.902 100.873 101.242 100.847 101.603C100.837 101.743 100.834 101.888 100.837 102.037C101.104 101.714 101.333 101.444 101.531 101.216C101.857 100.84 102.253 100.604 102.706 100.514C103.133 100.429 103.537 100.529 103.908 100.81C104.27 101.086 104.495 101.436 104.577 101.85C104.652 102.229 104.535 102.646 104.227 103.09C104.004 103.411 103.565 103.761 102.893 104.152C103.663 104.246 104.203 104.402 104.535 104.623C104.99 104.927 105.258 105.272 105.333 105.649C105.416 106.064 105.341 106.473 105.113 106.865C104.878 107.267 104.543 107.514 104.116 107.599C103.661 107.69 103.202 107.617 102.753 107.381C102.481 107.239 102.167 107.073 101.801 106.877C101.854 107.015 101.912 107.147 101.975 107.271C102.137 107.596 102.251 107.916 102.312 108.224C102.412 108.728 102.352 109.175 102.132 109.553C101.907 109.943 101.531 110.192 101.015 110.295C100.872 110.323 100.734 110.336 100.601 110.333ZM99.2174 106.549C99.2413 106.549 99.265 106.553 99.2883 106.561C99.3835 106.592 99.4506 106.677 99.459 106.776C99.4948 107.195 99.5116 107.579 99.509 107.916C99.5066 108.232 99.5306 108.519 99.5799 108.768C99.6574 109.157 99.8133 109.44 100.057 109.635C100.287 109.82 100.569 109.876 100.918 109.807C101.293 109.732 101.549 109.568 101.702 109.304C101.861 109.029 101.901 108.708 101.824 108.321C101.771 108.057 101.672 107.779 101.53 107.494C101.37 107.176 101.237 106.817 101.136 106.429C101.111 106.333 101.146 106.232 101.224 106.171C101.301 106.109 101.408 106.101 101.495 106.147C102.101 106.474 102.588 106.733 102.984 106.94C103.335 107.124 103.673 107.18 104.019 107.111C104.304 107.054 104.521 106.892 104.683 106.614C104.851 106.326 104.904 106.042 104.845 105.746C104.797 105.503 104.599 105.265 104.259 105.037C104.011 104.872 103.424 104.658 102.031 104.577C101.919 104.57 101.825 104.489 101.802 104.379C101.779 104.269 101.832 104.157 101.933 104.106C103.187 103.47 103.65 103.048 103.818 102.806C104.046 102.477 104.137 102.188 104.089 101.947C104.03 101.651 103.872 101.409 103.607 101.207C103.351 101.012 103.088 100.945 102.804 101.002C102.456 101.071 102.163 101.248 101.906 101.543C101.622 101.87 101.271 102.289 100.834 102.825C100.771 102.902 100.669 102.934 100.574 102.908C100.479 102.881 100.408 102.8 100.395 102.702C100.339 102.306 100.324 101.924 100.351 101.567C100.373 101.25 100.358 100.956 100.306 100.691C100.229 100.307 100.072 100.031 99.824 99.8496C99.5831 99.6734 99.2829 99.6239 98.9071 99.6988C98.5578 99.7683 98.3188 99.9279 98.1766 100.187C98.0263 100.46 97.991 100.783 98.0682 101.171C98.1134 101.398 98.1988 101.66 98.3223 101.952C98.4541 102.264 98.5853 102.624 98.7123 103.023C98.7426 103.119 98.7131 103.223 98.6372 103.288C98.5613 103.353 98.454 103.366 98.3644 103.322C97.8001 103.041 97.3144 102.785 96.9202 102.561C96.58 102.367 96.2262 102.311 95.8395 102.387C95.5547 102.444 95.3378 102.607 95.176 102.884C95.0081 103.172 94.9552 103.456 95.0141 103.753C95.0625 103.996 95.2528 104.23 95.5802 104.448C95.8197 104.608 96.399 104.822 97.7993 104.929C97.9117 104.937 98.0041 105.021 98.0248 105.131C98.0455 105.242 97.9894 105.353 97.8877 105.402C96.6084 106.014 96.1613 106.43 96.0116 106.672C95.8021 107.01 95.7209 107.306 95.7699 107.552C95.829 107.849 95.9866 108.091 96.2517 108.292C96.5074 108.487 96.7702 108.554 97.0553 108.497C97.4407 108.42 97.7435 108.228 97.9812 107.91C98.2558 107.542 98.6066 107.113 99.0235 106.634C99.0731 106.577 99.1445 106.547 99.2174 106.549Z" fill="#121111"/>
        <path d="M111.165 105.475C110.891 105.841 110.532 106.069 110.088 106.157C109.732 106.228 109.398 106.144 109.086 105.906C108.773 105.669 108.581 105.372 108.51 105.016C108.448 104.705 108.539 104.352 108.784 103.957C109.029 103.562 109.689 103.108 110.765 102.593C109.592 102.504 108.812 102.329 108.426 102.071C108.04 101.814 107.816 101.529 107.754 101.218C107.684 100.863 107.747 100.515 107.945 100.175C108.143 99.836 108.42 99.6305 108.775 99.5597C109.219 99.4714 109.637 99.5386 110.028 99.7608C110.418 99.9835 110.895 100.235 111.459 100.515C111.335 100.124 111.208 99.7744 111.077 99.4654C110.947 99.1568 110.857 98.8803 110.808 98.6356C110.72 98.1914 110.765 97.8074 110.943 97.4829C111.121 97.1589 111.421 96.955 111.843 96.871C112.287 96.7826 112.658 96.8474 112.955 97.0653C113.253 97.2832 113.446 97.6145 113.534 98.0586C113.592 98.3475 113.607 98.662 113.583 99.0014C113.558 99.3414 113.572 99.7023 113.625 100.084C114.052 99.5606 114.411 99.131 114.703 98.7958C114.994 98.4608 115.339 98.2536 115.739 98.174C116.094 98.1034 116.429 98.1872 116.742 98.4248C117.054 98.663 117.247 98.9597 117.317 99.3147C117.379 99.6261 117.276 99.9759 117.007 100.364C116.737 100.753 116.078 101.213 115.03 101.745C116.198 101.813 116.982 101.98 117.381 102.247C117.781 102.513 118.011 102.803 118.073 103.113C118.144 103.469 118.08 103.817 117.882 104.156C117.684 104.496 117.407 104.701 117.052 104.771C116.652 104.851 116.252 104.787 115.853 104.577C115.453 104.368 114.956 104.103 114.361 103.783C114.458 104.156 114.584 104.495 114.737 104.799C114.889 105.104 114.995 105.4 115.052 105.689C115.141 106.133 115.09 106.519 114.901 106.845C114.712 107.171 114.395 107.379 113.951 107.467C113.529 107.551 113.174 107.478 112.885 107.246C112.597 107.015 112.409 106.677 112.32 106.233C112.267 105.966 112.242 105.665 112.244 105.33C112.247 104.995 112.23 104.623 112.195 104.214C111.782 104.689 111.438 105.109 111.165 105.475Z" fill="white"/>
        <path d="M113.586 107.749C113.263 107.741 112.976 107.638 112.73 107.44C112.396 107.172 112.176 106.783 112.076 106.281C112.02 105.999 111.993 105.679 111.996 105.328C111.997 105.176 111.994 105.013 111.987 104.842C111.748 105.127 111.54 105.389 111.364 105.624C111.054 106.039 110.641 106.301 110.137 106.401C109.709 106.486 109.305 106.386 108.935 106.104C108.574 105.83 108.349 105.481 108.266 105.065C108.192 104.691 108.295 104.274 108.573 103.826C108.778 103.494 109.218 103.14 109.908 102.754C109.141 102.649 108.608 102.492 108.288 102.278C107.847 101.984 107.585 101.643 107.51 101.266C107.428 100.851 107.502 100.442 107.73 100.05C107.965 99.6474 108.3 99.4004 108.727 99.3155C109.229 99.2156 109.708 99.2926 110.151 99.5443C110.405 99.689 110.698 99.8474 111.027 100.017C110.967 99.8553 110.908 99.7032 110.848 99.5622C110.712 99.2397 110.616 98.9443 110.564 98.6841C110.465 98.1832 110.519 97.7388 110.724 97.3632C110.939 96.973 111.299 96.7253 111.794 96.6266C112.307 96.5246 112.748 96.6046 113.102 96.8643C113.45 97.1194 113.678 97.5049 113.778 98.0098C113.839 98.3182 113.857 98.6578 113.831 99.0191C113.821 99.1593 113.818 99.3042 113.822 99.4529C114.088 99.1306 114.317 98.8598 114.515 98.6325C114.842 98.2566 115.237 98.02 115.691 97.9298C116.117 97.8448 116.521 97.9447 116.892 98.2264C117.254 98.502 117.479 98.8517 117.561 99.2662C117.637 99.6447 117.519 100.062 117.211 100.506C116.988 100.827 116.549 101.178 115.878 101.569C116.647 101.662 117.188 101.818 117.519 102.04C117.974 102.343 118.242 102.688 118.317 103.065C118.4 103.48 118.326 103.889 118.097 104.281C117.863 104.683 117.527 104.931 117.101 105.015C116.645 105.106 116.186 105.033 115.737 104.797C115.465 104.655 115.15 104.488 114.785 104.293C114.838 104.431 114.896 104.563 114.959 104.687C115.122 105.012 115.235 105.332 115.296 105.64C115.397 106.144 115.336 106.591 115.117 106.97C114.891 107.359 114.515 107.608 114 107.711C113.856 107.74 113.718 107.752 113.586 107.749ZM112.202 103.965C112.226 103.965 112.249 103.969 112.273 103.977C112.368 104.008 112.435 104.093 112.444 104.193C112.479 104.611 112.496 104.995 112.493 105.332C112.491 105.649 112.515 105.935 112.564 106.184C112.641 106.573 112.798 106.857 113.041 107.052C113.271 107.236 113.553 107.292 113.903 107.223C114.277 107.148 114.533 106.984 114.686 106.72C114.845 106.445 114.885 106.124 114.808 105.737C114.756 105.473 114.657 105.195 114.514 104.911C114.354 104.592 114.221 104.233 114.12 103.845C114.095 103.749 114.13 103.648 114.208 103.587C114.286 103.526 114.392 103.517 114.479 103.564C115.075 103.885 115.576 104.152 115.968 104.356C116.319 104.54 116.658 104.596 117.003 104.527C117.288 104.471 117.505 104.308 117.667 104.031C117.835 103.743 117.888 103.458 117.829 103.162C117.781 102.919 117.583 102.681 117.243 102.454C116.995 102.288 116.408 102.074 115.015 101.993C114.903 101.986 114.809 101.905 114.786 101.795C114.763 101.685 114.817 101.573 114.917 101.522C116.171 100.887 116.634 100.464 116.802 100.222C117.03 99.8933 117.121 99.6044 117.073 99.3634C117.014 99.0673 116.856 98.825 116.591 98.6227C116.335 98.4284 116.072 98.3615 115.788 98.4181C115.44 98.4872 115.147 98.6643 114.891 98.9592C114.606 99.2861 114.255 99.7054 113.818 100.241C113.756 100.318 113.654 100.35 113.558 100.324C113.463 100.297 113.393 100.216 113.379 100.118C113.324 99.7217 113.309 99.34 113.335 98.9832C113.358 98.6666 113.342 98.3716 113.29 98.1069C113.213 97.7226 113.056 97.4475 112.808 97.2658C112.567 97.0895 112.267 97.0399 111.891 97.1149C111.542 97.1844 111.303 97.344 111.161 97.6028C111.011 97.8765 110.975 98.1987 111.052 98.587C111.098 98.8139 111.183 99.0768 111.307 99.3683C111.438 99.6794 111.57 100.04 111.697 100.44C111.727 100.535 111.697 100.639 111.621 100.704C111.546 100.769 111.438 100.783 111.349 100.738C110.785 100.458 110.299 100.202 109.904 99.9769C109.564 99.7834 109.21 99.7268 108.824 99.8037C108.539 99.8603 108.322 100.023 108.16 100.3C107.992 100.588 107.939 100.872 107.998 101.169C108.047 101.412 108.237 101.646 108.564 101.864C108.804 102.025 109.383 102.238 110.784 102.345C110.896 102.354 110.988 102.437 111.009 102.548C111.03 102.658 110.974 102.769 110.872 102.818C109.593 103.43 109.146 103.846 108.996 104.088C108.787 104.426 108.705 104.722 108.754 104.968C108.813 105.265 108.971 105.507 109.236 105.708C109.492 105.903 109.754 105.97 110.04 105.913C110.425 105.836 110.728 105.644 110.965 105.326C111.24 104.958 111.591 104.529 112.008 104.05C112.057 103.993 112.129 103.963 112.202 103.965Z" fill="#121111"/>
    </g>
    <mask id="mask2_9_4037" style="mask-type:luminance" maskUnits="userSpaceOnUse" x="0" y="-2" width="161" height="161">
        <path d="M0.0251465 -1.77563H160.025V158.224H0.0251465V-1.77563Z" fill="white"/>
    </mask>
    <g mask="url(#mask2_9_4037)">
        <path d="M44.4432 73.8771C38.8596 78.8355 33.185 82.1245 25.4541 84.685C25.5092 85.1914 25.816 88.0119 27.2222 100.943C29.0982 118.194 47.2014 124.669 50.0104 125.659C52.4609 124.23 68.8698 113.843 66.9938 96.5931C65.5876 83.6617 65.2808 80.8411 65.2257 80.3347C57.1261 79.5058 50.3073 77.2781 44.4432 73.8771Z" fill="#3A3333"/>
        <path d="M50.0103 125.908C49.9824 125.908 49.9544 125.904 49.9275 125.894C44.462 123.967 40.4872 121.406 38.1153 119.597C35.1851 117.362 32.7815 114.833 30.9712 112.08C28.7544 108.71 27.4099 104.972 26.9747 100.97L25.2065 84.712C25.1939 84.5953 25.2643 84.4857 25.3757 84.4489C32.9635 81.9357 38.6165 78.7185 44.2777 73.6912C44.358 73.6198 44.4749 73.6081 44.5679 73.662C47.5217 75.375 50.7189 76.7784 54.0708 77.8332C57.5393 78.9245 61.3008 79.683 65.2508 80.0872C65.3676 80.0992 65.4604 80.1912 65.4731 80.3078L67.2411 96.5662C69.1624 114.233 52.0888 124.735 50.1357 125.874C50.0972 125.897 50.0539 125.908 50.0103 125.908ZM25.7231 84.8578L27.4695 100.916C27.896 104.839 29.2141 108.503 31.3871 111.807C33.1665 114.512 35.5317 117 38.4173 119.201C40.7449 120.976 44.6356 123.485 49.9841 125.386C52.3225 124.002 68.6047 113.708 66.7463 96.6201L64.9999 80.5616C61.0896 80.1489 57.3632 79.391 53.9213 78.308C50.5933 77.2608 47.4159 75.8732 44.4737 74.1824C38.8509 79.1477 33.224 82.3513 25.7231 84.8578Z" fill="#121111"/>
        <path d="M29.318 102.306C29.1926 102.306 29.0848 102.211 29.0709 102.084L27.3028 85.8252C27.29 85.7085 27.3605 85.5989 27.4718 85.562C33.862 83.4456 38.8289 80.848 43.5764 77.1396C43.6848 77.0549 43.841 77.0742 43.9257 77.1825C44.0102 77.2909 43.991 77.4473 43.8828 77.5318C39.1356 81.24 34.1744 83.8474 27.8193 85.971L29.5657 102.03C29.5806 102.166 29.4818 102.289 29.3452 102.304C29.3361 102.305 29.3269 102.306 29.318 102.306Z" fill="#121111"/>
        <mask id="mask3_9_4037" style="mask-type:alpha" maskUnits="userSpaceOnUse" x="33" y="84" width="27" height="28">
            <path d="M46.6899 84.9431C53.945 84.9431 59.8356 90.8336 59.8356 98.0887C59.8356 105.344 53.945 111.234 46.6899 111.234C39.4348 111.234 33.5442 105.344 33.5442 98.0887C33.5442 90.8336 39.4348 84.9431 46.6899 84.9431Z" fill="#FF008C"/>
        </mask>
        <g mask="url(#mask3_9_4037)">
            <path d="M57.8277 92.6641L55.1659 90.5455C55.1543 90.5362 54.4878 91.4069 54.4785 91.4186L45.1467 103.143C45.1374 103.154 45.1203 103.156 45.1087 103.147L38.1115 97.5773C38.0999 97.5681 38.0829 97.5699 38.0737 97.5817L35.9549 100.243C35.9455 100.255 35.9475 100.271 35.9593 100.281L42.9778 105.867L42.9774 105.867C42.9682 105.879 42.9701 105.896 42.9818 105.905L45.6434 108.024C45.6551 108.033 45.6722 108.031 45.6814 108.02L45.7023 108.036L47.8382 105.353C47.8473 105.342 47.8455 105.325 47.8342 105.316L47.8338 105.315L57.1825 93.5709C57.1918 93.5593 57.8394 92.6734 57.8277 92.6641Z" fill="white"/>
            <path d="M45.7022 108.286C45.682 108.286 45.6623 108.283 45.643 108.278C45.5868 108.275 45.5331 108.254 45.4883 108.219L42.8267 106.1C42.7935 106.074 42.7673 106.041 42.7496 106.003L35.804 100.476C35.6851 100.381 35.6655 100.207 35.76 100.088L37.8787 97.4265C37.9736 97.3074 38.1476 97.288 38.2665 97.3826L45.09 102.814L54.2837 91.2637L54.31 91.2293C54.3743 91.1456 54.5347 90.9366 54.6815 90.7484C54.7555 90.6534 54.826 90.5637 54.8792 90.4976C54.9849 90.366 55.0287 90.3114 55.1354 90.2984C55.2016 90.2904 55.2684 90.3092 55.3207 90.3506L57.9827 92.4694C58.025 92.5032 58.152 92.6296 58.0113 92.8425C57.9937 92.869 57.9681 92.9065 57.937 92.951C57.8835 93.0273 57.8087 93.132 57.7148 93.2622C57.5721 93.46 57.3891 93.7109 57.3772 93.7258L48.0855 105.399C48.0766 105.438 48.0589 105.475 48.0325 105.509L45.8969 108.192C45.8556 108.243 45.7951 108.277 45.7291 108.284C45.7201 108.285 45.7111 108.286 45.7022 108.286ZM43.2048 105.765L45.6457 107.708L47.59 105.265C47.5976 105.228 47.6137 105.192 47.6389 105.16L56.9855 93.4184C57.0323 93.356 57.3254 92.9537 57.4935 92.7162L55.2015 90.8918C55.1092 91.0088 54.9566 91.2046 54.7045 91.5326C54.6855 91.5574 54.6742 91.5722 54.673 91.5737L45.3412 103.298C45.2954 103.355 45.2299 103.392 45.1567 103.4C45.0833 103.408 45.0112 103.387 44.9536 103.341L38.1301 97.9102L36.2877 100.224L43.1327 105.672C43.1648 105.698 43.1891 105.73 43.2048 105.765Z" fill="#121111"/>
        </g>
    </g>
</svg>
